<svg width="375" height="283" viewBox="0 0 375 283" fill="none" xmlns="http://www.w3.org/2000/svg">
<path d="M167.12 242.248C166.911 239.751 167.376 237.243 168.465 234.987C169.555 232.731 171.229 230.809 173.313 229.421C175.397 228.033 177.815 227.231 180.314 227.098C182.814 226.965 185.303 227.505 187.523 228.664C188.597 225.789 189.699 222.862 191.599 220.457C193.498 218.051 196.37 216.206 199.434 216.319V242.248H167.12Z" fill="#EBEBEB"/>
<path d="M81.9809 141.8L65.4619 175.171L70.3973 175.358L56.3939 201.875H63.7489L52.2783 225.432H116.398L102.276 201.875L109.043 201.581L95.515 175.075L100.513 174.781L81.9809 141.8Z" fill="#EBEBEB"/>
<path d="M84.7793 180.509C84.8585 180.509 84.7172 194.659 84.4628 212.069C84.2084 229.479 83.937 243.629 83.8522 243.623C83.7674 243.618 83.9144 229.473 84.1688 212.063C84.4232 194.653 84.6945 180.509 84.7793 180.509Z" fill="#E0E0E0"/>
<path d="M92.6371 188.291C92.3194 188.833 91.9583 189.348 91.5573 189.831C90.8619 190.759 89.8613 192.01 88.7306 193.379L85.8474 196.872C85.4677 197.371 85.0541 197.844 84.6094 198.287C84.9225 197.742 85.2818 197.225 85.6835 196.741C86.3845 195.819 87.3795 194.562 88.5102 193.193L91.3934 189.7C91.7719 189.2 92.1876 188.729 92.6371 188.291Z" fill="#E0E0E0"/>
<path d="M84.6323 198.286C83.3718 197.485 82.1633 196.604 81.0142 195.649C79.8051 194.767 78.655 193.806 77.5713 192.773C78.8342 193.574 80.0446 194.455 81.1951 195.411C82.4045 196.29 83.5529 197.251 84.6323 198.286Z" fill="#E0E0E0"/>
<path d="M84.1861 214.65C83.7523 214.369 83.3471 214.047 82.9763 213.688C82.2527 213.071 81.2803 212.222 80.1497 211.305C79.019 210.388 77.9901 209.578 77.2438 208.995C76.8203 208.7 76.4231 208.369 76.0566 208.005C76.5181 208.234 76.9556 208.509 77.3626 208.826C78.1484 209.392 79.2055 210.156 80.3362 211.09C81.4669 212.023 82.4449 212.889 83.1346 213.546C83.5198 213.879 83.8719 214.249 84.1861 214.65Z" fill="#E0E0E0"/>
<path d="M93.3213 204.535C93.24 204.698 93.1394 204.85 93.0217 204.988C92.8182 205.265 92.5073 205.656 92.1115 206.12C91.3144 207.065 90.1611 208.322 88.8552 209.686C87.5493 211.05 86.379 212.272 85.548 213.184C85.1204 213.693 84.6656 214.178 84.1855 214.638C84.2593 214.475 84.3585 214.324 84.4795 214.191C84.683 213.908 84.994 213.518 85.3897 213.059C86.1868 212.108 87.3401 210.852 88.646 209.493C89.952 208.135 91.1222 206.901 91.9532 205.99C92.3816 205.48 92.8383 204.994 93.3213 204.535Z" fill="#E0E0E0"/>
<path d="M216.474 179.772H283.466L295.982 161.977L309.103 180.276L324.52 180.027L307.905 157.619L233.208 157.93L216.474 179.772Z" fill="#E0E0E0"/>
<path d="M249.976 180.027V242.406H316.871V180.027H309.206L295.982 161.978L283.426 179.756L249.976 180.027Z" fill="#F5F5F5"/>
<path d="M275.076 215.362H259.428V242.406H275.076V215.362Z" fill="#E0E0E0"/>
<path d="M309.104 214.599H284.455V229.886H309.104V214.599Z" fill="#E0E0E0"/>
<path d="M291.855 214.599H291.29V230.028H291.855V214.599Z" fill="#EBEBEB"/>
<path d="M302.104 214.599H301.539V230.028H302.104V214.599Z" fill="#EBEBEB"/>
<path d="M301.822 222.494H291.572V223.06H301.822V222.494Z" fill="#EBEBEB"/>
<path d="M309.104 184.007H284.455V199.294H309.104V184.007Z" fill="#E0E0E0"/>
<path d="M291.855 184.007H291.29V199.436H291.855V184.007Z" fill="#EBEBEB"/>
<path d="M302.104 184.007H301.539V199.436H302.104V184.007Z" fill="#EBEBEB"/>
<path d="M301.822 191.902H291.572V192.468H301.822V191.902Z" fill="#EBEBEB"/>
<path d="M273.442 184.143H257.896V198.881H273.442V184.143Z" fill="#E0E0E0"/>
<path d="M249.981 180.027H222.828V242.401H249.981V180.027Z" fill="#E0E0E0"/>
<path d="M265.952 184.143H265.387V198.881H265.952V184.143Z" fill="#EBEBEB"/>
<path d="M273.442 191.591H257.896V192.157H273.442V191.591Z" fill="#EBEBEB"/>
<path d="M295.948 177.186C297.768 177.186 299.244 175.709 299.244 173.887C299.244 172.064 297.768 170.587 295.948 170.587C294.128 170.587 292.652 172.064 292.652 173.887C292.652 175.709 294.128 177.186 295.948 177.186Z" fill="#E0E0E0"/>
<path d="M272.436 169.84L276.591 164.7V152.345H267.885V169.936L272.436 169.84Z" fill="#F5F5F5"/>
<path d="M272.437 169.84V152.345H276.592V164.7L272.437 169.84Z" fill="#EBEBEB"/>
<path d="M277.18 150.527H266.913V152.344H277.18V150.527Z" fill="#EBEBEB"/>
<path d="M249.975 207.314H199.457V242.406H249.975V207.314Z" fill="#F5F5F5"/>
<path d="M231.087 207.314H199.457V242.406H231.087V207.314Z" fill="#E0E0E0"/>
<path d="M226.378 218.629H205.692V242.344H226.378V218.629Z" fill="#F5F5F5"/>
<path d="M247.194 218.532H233.869V221.928H247.194V218.532Z" fill="#EBEBEB"/>
<path d="M216.474 179.773V181.578H283.426V179.756L216.474 179.773Z" fill="#EBEBEB"/>
<path d="M283.426 181.578L295.948 163.981L295.982 161.978L283.465 179.773L283.426 181.578Z" fill="#EBEBEB"/>
<path d="M324.198 180.027H309.205V181.193H324.198V180.027Z" fill="#EBEBEB"/>
<path d="M269.74 211.22H264.205V213.325H269.74V211.22Z" fill="#E0E0E0"/>
<path d="M352.696 242.407C352.696 242.486 276.715 242.554 183.005 242.554C89.2958 242.554 13.3037 242.486 13.3037 242.407C13.3037 242.327 89.2675 242.248 183 242.248C276.732 242.248 352.696 242.322 352.696 242.407Z" fill="#263238"/>
<path d="M221.403 78.2324C208.881 60.9864 190.677 52.9492 171.654 52.9492C171.654 52.9492 125.132 52.9492 111.355 94.6464C106.267 110.013 107.398 126.699 113.56 141.664C115.873 147.353 118.788 152.778 122.255 157.846C134.291 175.222 171.693 222.659 171.693 222.659H179.823C190.259 208.146 216.53 159.94 224.399 144.483C234.264 125.086 235.779 98.0311 221.403 78.2324ZM179.438 155.361C171.578 155.361 163.893 153.027 157.358 148.655C150.822 144.283 145.728 138.068 142.72 130.797C139.712 123.526 138.925 115.525 140.459 107.807C141.993 100.088 145.779 92.9983 151.338 87.4338C156.896 81.8693 163.978 78.0802 171.688 76.5455C179.398 75.0109 187.389 75.7996 194.651 78.8121C201.913 81.8246 208.12 86.9254 212.486 93.4695C216.852 100.014 219.182 107.707 219.181 115.577C219.18 126.129 214.992 136.248 207.539 143.709C200.086 151.17 189.978 155.361 179.438 155.361Z" fill="#F27507"/>
<path opacity="0.4" d="M221.403 78.2324C208.881 60.9864 190.677 52.9492 171.654 52.9492C171.654 52.9492 125.132 52.9492 111.355 94.6464C106.267 110.013 107.398 126.699 113.56 141.664C115.873 147.353 118.788 152.778 122.255 157.846C134.291 175.222 171.693 222.659 171.693 222.659H179.823C190.259 208.146 216.53 159.94 224.399 144.483C234.264 125.086 235.779 98.0311 221.403 78.2324ZM179.438 155.361C171.578 155.361 163.893 153.027 157.358 148.655C150.822 144.283 145.728 138.068 142.72 130.797C139.712 123.526 138.925 115.525 140.459 107.807C141.993 100.088 145.779 92.9983 151.338 87.4338C156.896 81.8693 163.978 78.0802 171.688 76.5455C179.398 75.0109 187.389 75.7996 194.651 78.8121C201.913 81.8246 208.12 86.9254 212.486 93.4695C216.852 100.014 219.182 107.707 219.181 115.577C219.18 126.129 214.992 136.248 207.539 143.709C200.086 151.17 189.978 155.361 179.438 155.361Z" fill="black"/>
<path d="M229.583 78.5549C217.061 61.3145 198.857 53.2773 179.834 53.2773C179.834 53.2773 133.313 53.2773 119.535 94.9746C114.447 110.341 115.578 127.027 121.746 141.992C124.056 147.682 126.969 153.107 130.435 158.174C142.471 175.545 179.856 223.004 179.856 223.004C179.856 223.004 223.054 163.511 232.562 144.833C242.444 125.403 243.965 98.3592 229.583 78.5549ZM179.489 155.689C171.629 155.689 163.945 153.356 157.409 148.984C150.873 144.611 145.779 138.397 142.771 131.126C139.763 123.856 138.976 115.855 140.51 108.137C142.043 100.419 145.828 93.3286 151.386 87.7639C156.945 82.1992 164.026 78.4096 171.736 76.8743C179.445 75.339 187.436 76.127 194.698 79.1386C201.96 82.1502 208.167 87.2502 212.534 93.7935C216.901 100.337 219.232 108.03 219.232 115.9C219.271 121.136 218.27 126.327 216.286 131.173C214.303 136.018 211.377 140.42 207.679 144.123C203.98 147.825 199.584 150.755 194.744 152.74C189.905 154.726 184.719 155.729 179.489 155.689Z" fill="#F27507"/>
<path d="M179.438 75.7871C171.226 75.787 163.214 78.3344 156.507 83.0788C149.799 87.8232 144.724 94.5316 141.979 102.282C145.046 95.4966 150.247 89.9036 156.788 86.3574C163.329 82.8113 170.85 81.5071 178.201 82.6442C185.552 83.7813 192.329 87.2972 197.496 92.6544C202.663 98.0116 205.936 104.915 206.814 112.311C207.692 119.706 206.127 127.185 202.358 133.606C198.59 140.026 192.825 145.035 185.945 147.866C179.065 150.697 171.448 151.194 164.259 149.282C157.07 147.37 150.704 143.154 146.135 137.277C149.891 143.054 155.083 147.755 161.2 150.918C167.317 154.082 174.15 155.6 181.03 155.323C187.91 155.047 194.599 152.986 200.444 149.341C206.288 145.697 211.087 140.595 214.369 134.536C217.651 128.476 219.304 121.666 219.166 114.774C219.028 107.882 217.104 101.145 213.582 95.2215C210.06 89.2982 205.062 84.3927 199.076 80.9858C193.091 77.5789 186.324 75.7875 179.438 75.7871Z" fill="#F27507"/>
<path opacity="0.4" d="M179.438 75.7871C171.226 75.787 163.214 78.3344 156.507 83.0788C149.799 87.8232 144.724 94.5316 141.979 102.282C145.046 95.4966 150.247 89.9036 156.788 86.3574C163.329 82.8113 170.85 81.5071 178.201 82.6442C185.552 83.7813 192.329 87.2972 197.496 92.6544C202.663 98.0116 205.936 104.915 206.814 112.311C207.692 119.706 206.127 127.185 202.358 133.606C198.59 140.026 192.825 145.035 185.945 147.866C179.065 150.697 171.448 151.194 164.259 149.282C157.07 147.37 150.704 143.154 146.135 137.277C149.891 143.054 155.083 147.755 161.2 150.918C167.317 154.082 174.15 155.6 181.03 155.323C187.91 155.047 194.599 152.986 200.444 149.341C206.288 145.697 211.087 140.595 214.369 134.536C217.651 128.476 219.304 121.666 219.166 114.774C219.028 107.882 217.104 101.145 213.582 95.2215C210.06 89.2982 205.062 84.3927 199.076 80.9858C193.091 77.5789 186.324 75.7875 179.438 75.7871Z" fill="black"/>
<path d="M258.681 133.819C257.082 132.719 255.142 132.231 253.214 132.444C249.958 132.817 245.237 133.299 245.237 133.299V133.451L222.437 134.855L215.455 120.677L204.878 127.656C204.878 127.656 206.269 129.886 212.199 140.849C213.357 142.989 215.142 144.721 217.315 145.813C219.488 146.904 221.943 147.301 224.348 146.95L251.196 142.988V142.938C253.972 142.785 256.973 142.524 257.414 142.122C258.251 141.364 259.009 138.591 259.009 138.591C259.009 138.591 263.791 141.421 264.713 141.5C265.634 141.579 265.804 140.792 266.375 139.977C266.782 139.474 261.852 135.981 258.681 133.819Z" fill="#B78876"/>
<path d="M216.88 119.771C216.88 119.771 212.448 111.23 208.4 103.165C203.414 93.2656 192.418 91.279 192.418 91.279L176.487 89.1848C176.487 89.1848 163.156 83.1569 150.776 98.1276L140.6 109.51L142.765 111.463L152.856 120.519L154.852 122.318L159.42 117.609L157.3 129.535L153.551 146.164L161.653 145.185L167.131 111.649L198.021 114.111L195.556 135.274C196.053 135.201 199.79 134.465 201.005 129.382C201.396 127.76 201.396 126.068 201.005 124.447L202.792 129.026L216.88 119.771Z" fill="#455A64"/>
<path d="M167.091 111.666L161.613 145.202L153.512 146.181C158.923 150.855 165.495 153.98 172.533 155.225C179.571 156.47 186.814 155.79 193.498 153.256L195.556 135.274L197.981 114.128L167.091 111.666Z" fill="#263238"/>
<path d="M168.923 87.5201L168.256 114.762L173.389 115.577L174.079 87.9672C174.079 87.9672 172.287 87.1182 168.923 87.5201Z" fill="#263238"/>
<path d="M190.723 114.898L194.968 91.4996C195.211 91.2392 198.694 92.4901 199.745 93.6787L195.935 115.385L190.723 114.898Z" fill="#263238"/>
<path d="M173.593 111.57C173.647 111.718 173.674 111.876 173.672 112.034C173.711 112.463 173.711 112.895 173.672 113.324C173.632 113.983 173.411 114.618 173.033 115.158C172.8 115.481 172.492 115.741 172.134 115.917C171.739 116.095 171.3 116.148 170.874 116.069C170.474 115.985 170.097 115.819 169.764 115.583C169.432 115.346 169.151 115.044 168.94 114.694C168.613 114.128 168.42 113.495 168.375 112.843C168.337 112.414 168.337 111.982 168.375 111.553C168.372 111.392 168.401 111.233 168.46 111.083C168.51 111.083 168.46 111.762 168.578 112.821C168.657 113.422 168.859 114 169.172 114.519C169.368 114.831 169.624 115.101 169.926 115.312C170.228 115.523 170.57 115.671 170.93 115.747C171.287 115.81 171.655 115.77 171.99 115.632C172.326 115.494 172.615 115.262 172.824 114.966C173.185 114.466 173.409 113.881 173.474 113.268C173.599 112.249 173.536 111.57 173.593 111.57Z" fill="#455A64"/>
<path d="M170.562 113.975C170.272 113.86 170.04 113.633 169.916 113.346C169.793 113.059 169.788 112.735 169.904 112.444C170.019 112.154 170.245 111.921 170.532 111.797C170.819 111.674 171.143 111.669 171.433 111.785C171.577 111.842 171.708 111.927 171.819 112.035C171.929 112.143 172.018 112.271 172.079 112.414C172.14 112.556 172.173 112.709 172.175 112.863C172.177 113.018 172.149 113.172 172.092 113.316C172.034 113.46 171.95 113.591 171.842 113.702C171.734 113.813 171.605 113.901 171.463 113.963C171.321 114.024 171.169 114.056 171.014 114.059C170.86 114.061 170.706 114.032 170.562 113.975Z" fill="#455A64"/>
<path d="M194.714 114.123C194.715 114.357 194.646 114.586 194.517 114.781C194.388 114.977 194.204 115.129 193.988 115.22C193.772 115.31 193.535 115.334 193.305 115.289C193.076 115.244 192.864 115.132 192.699 114.967C192.533 114.802 192.42 114.591 192.374 114.361C192.328 114.132 192.351 113.893 192.44 113.677C192.529 113.46 192.681 113.275 192.875 113.145C193.07 113.015 193.298 112.945 193.532 112.945C193.844 112.945 194.144 113.069 194.366 113.29C194.587 113.51 194.712 113.81 194.714 114.123Z" fill="#455A64"/>
<path d="M196.29 113.307C196.281 113.777 196.191 114.243 196.025 114.683C195.866 115.183 195.597 115.641 195.239 116.024C195.01 116.261 194.73 116.444 194.421 116.558C194.111 116.671 193.78 116.713 193.452 116.681C192.798 116.61 192.193 116.297 191.756 115.803C191.416 115.4 191.19 114.914 191.101 114.394C191.035 114.053 191.023 113.703 191.067 113.358C191.074 113.23 191.108 113.104 191.168 112.99C191.176 113.448 191.221 113.904 191.304 114.354C191.414 114.825 191.639 115.261 191.96 115.622C192.358 116.052 192.898 116.323 193.481 116.386C193.768 116.416 194.059 116.381 194.331 116.283C194.603 116.185 194.85 116.027 195.052 115.82C195.394 115.476 195.66 115.063 195.832 114.609C196.126 113.822 196.239 113.29 196.29 113.307Z" fill="#455A64"/>
<path d="M170.467 124.52C170.427 124.52 170.41 124.294 170.421 123.954C170.421 123.779 170.421 123.563 170.45 123.331C170.45 123.207 170.45 123.082 170.478 122.963V122.771V122.669V122.573L170.642 122.426C171.306 122.448 171.963 122.569 172.592 122.782C171.931 122.856 171.263 122.834 170.608 122.714C170.574 122.748 170.919 122.437 170.772 122.573V122.658V122.76V122.958C170.772 123.082 170.744 123.201 170.727 123.331C170.727 123.569 170.665 123.779 170.636 123.96C170.563 124.282 170.506 124.52 170.467 124.52Z" fill="#455A64"/>
<path d="M169.641 132.296C169.567 131.642 169.588 130.98 169.703 130.332C169.724 129.673 169.842 129.021 170.054 128.396C170.135 129.05 170.116 129.713 169.997 130.361C169.972 131.019 169.852 131.671 169.641 132.296Z" fill="#455A64"/>
<path d="M170.788 139.049C170.142 138.89 169.523 138.636 168.951 138.297C168.951 138.331 168.798 138.019 168.866 138.149V138.064V137.963V137.765L168.917 137.397C168.951 137.165 168.985 136.949 169.013 136.774C169.081 136.423 169.137 136.208 169.177 136.208C169.217 136.208 169.233 136.44 169.222 136.774C169.222 136.955 169.211 137.165 169.188 137.402C169.188 137.532 169.188 137.651 169.154 137.776V137.968V138.07V138.161C169.228 138.291 169.058 137.98 169.075 138.014C169.694 138.273 170.271 138.622 170.788 139.049Z" fill="#455A64"/>
<path d="M176.012 141.647C175.061 141.401 174.169 140.966 173.389 140.368C173.875 140.448 174.34 140.625 174.757 140.889C175.221 141.056 175.648 141.314 176.012 141.647Z" fill="#455A64"/>
<path d="M182.231 143.079C181.684 143.459 181.084 143.756 180.451 143.962H180.309H180.264L180.174 143.916L179.998 143.826L179.67 143.656L179.105 143.345C178.8 143.164 178.619 143.033 178.636 142.994C178.653 142.954 178.868 142.994 179.201 143.158C179.365 143.226 179.563 143.311 179.767 143.413L180.1 143.571L180.281 143.656L180.371 143.696H180.417H180.321C180.923 143.396 181.567 143.188 182.231 143.079Z" fill="#455A64"/>
<path d="M186.454 141.364C186.483 141.444 186.036 141.693 185.454 141.93C184.871 142.168 184.374 142.298 184.323 142.225C184.272 142.151 184.741 141.896 185.324 141.659C185.906 141.421 186.42 141.291 186.454 141.364Z" fill="#455A64"/>
<path d="M190.603 137.792C190.678 138.454 190.659 139.122 190.547 139.779L190.451 139.903H190.406L190.309 139.943L190.129 140.016L189.784 140.147C189.558 140.226 189.36 140.299 189.184 140.35C188.845 140.463 188.619 140.514 188.619 140.475C188.619 140.435 188.8 140.322 189.117 140.158L189.682 139.892L190.027 139.745L190.208 139.671L190.298 139.631H190.349L190.259 139.756C190.275 139.088 190.391 138.426 190.603 137.792Z" fill="#455A64"/>
<path d="M191.355 130.457C191.43 131.692 191.302 132.931 190.976 134.125C190.898 133.511 190.913 132.889 191.022 132.28C191.037 131.658 191.15 131.043 191.355 130.457Z" fill="#455A64"/>
<path d="M189.971 124.611C190.632 124.537 191.3 124.56 191.955 124.679L192.085 124.837V124.928V125.03V125.222C192.085 125.347 192.057 125.466 192.04 125.59C192.006 125.828 191.978 126.037 191.944 126.218C191.881 126.569 191.819 126.784 191.78 126.784C191.74 126.784 191.729 126.552 191.735 126.218C191.735 126.037 191.735 125.822 191.768 125.584L191.797 125.216V125.018V124.832L191.927 124.99C191.26 124.961 190.601 124.833 189.971 124.611Z" fill="#455A64"/>
<path d="M183.034 123.864C184.204 123.791 185.378 123.917 186.505 124.237C185.923 124.32 185.331 124.306 184.753 124.198C184.166 124.178 183.586 124.066 183.034 123.864Z" fill="#455A64"/>
<path d="M176.097 123.111C176.679 123.028 177.271 123.042 177.849 123.15C178.429 123.172 179.001 123.285 179.545 123.484C178.376 123.557 177.202 123.431 176.074 123.111H176.097Z" fill="#455A64"/>
<path d="M139.752 113.523C139.712 114.202 139.695 114.887 139.695 115.577C139.693 118.265 139.964 120.947 140.504 123.58V123.66C140.572 123.988 140.651 124.311 140.73 124.633C141.035 125.912 141.403 127.175 141.81 128.42C141.861 128.573 141.911 128.731 141.968 128.884C143.427 128.556 147.655 124.888 152.523 120.309L142.437 111.253C141.041 112.634 140.21 113.364 139.752 113.523Z" fill="#B78876"/>
<path d="M203.419 54.7373C203.77 58.6484 208.219 61.9425 212.142 61.8236C214.302 61.7557 216.49 60.7935 218.564 61.3935C222.047 62.4066 223.455 67.2685 227.044 67.9194C229.713 68.4062 232.172 66.2214 234.88 66.0969C236.87 65.9894 238.747 66.9855 240.398 68.1062C242.048 69.2269 243.62 70.523 245.486 71.1626C247.351 71.8022 249.104 70.6702 251.009 70.0872C251.478 71.2985 251.789 72.7927 252.394 74.0492C252.999 75.3057 253.734 77.632 252.66 78.1301C252.66 78.1301 249.658 79.6866 247.922 79.6017C248.623 80.3094 249.498 80.8192 250.459 81.0796C251.42 81.34 252.433 81.3417 253.395 81.0846C253.875 83.9938 254.237 87.3502 252.264 89.5406C251.342 90.4902 250.163 91.1493 248.872 91.4367C242.574 93.0668 235.988 88.6577 229.594 89.8576C226.971 90.3557 224.568 91.7707 221.917 92.1216C220.609 92.2838 219.282 92.1827 218.015 91.824C216.747 91.4653 215.563 90.8564 214.534 90.0331C212.012 87.9898 210.277 84.5712 207.077 84.0335C205.658 83.8014 204.222 84.2089 202.831 84.5995C201.44 84.99 200.005 85.3636 198.586 85.0636C197.167 84.7636 195.855 83.5637 195.917 82.126" fill="#263238"/>
<path d="M190.915 92.7216C191.621 88.7596 192.435 84.6448 192.435 84.6448C192.435 84.6448 197.659 84.6957 199.881 78.249C201.995 72.1022 203.521 57.307 203.521 57.307C200.171 55.2187 196.262 54.2078 192.32 54.4102C188.378 54.6125 184.593 56.0185 181.474 58.439L176.267 90.5595C175.662 94.2894 178.381 97.776 182.372 98.3929C186.392 99.0495 190.219 96.4798 190.915 92.7216Z" fill="#B78876"/>
<path d="M199.615 68.3899C199.579 68.6116 199.458 68.8103 199.277 68.9436C199.096 69.0768 198.871 69.1341 198.649 69.103C198.539 69.0932 198.431 69.0614 198.334 69.0093C198.236 68.9572 198.15 68.8861 198.08 68.8C198.011 68.7139 197.959 68.6147 197.929 68.5083C197.898 68.4019 197.889 68.2904 197.902 68.1805C197.94 67.9583 198.063 67.7595 198.244 67.6264C198.426 67.4932 198.652 67.4362 198.875 67.4673C198.985 67.4778 199.091 67.5102 199.188 67.5626C199.285 67.615 199.37 67.6862 199.439 67.7722C199.508 67.8582 199.56 67.9572 199.59 68.0632C199.62 68.1693 199.629 68.2804 199.615 68.3899Z" fill="#263238"/>
<path d="M201.158 67.682C201.034 67.7725 200.474 67.1839 199.559 67.0254C198.643 66.8669 197.896 67.2009 197.817 67.0763C197.738 66.9518 197.919 66.833 198.247 66.6745C198.692 66.4676 199.189 66.4043 199.672 66.4934C200.145 66.5796 200.579 66.811 200.915 67.1556C201.158 67.4216 201.221 67.6367 201.158 67.682Z" fill="#263238"/>
<path d="M190.231 66.9006C190.193 67.1228 190.071 67.3215 189.889 67.4547C189.707 67.5879 189.481 67.6449 189.258 67.6138C189.149 67.6033 189.042 67.5709 188.945 67.5185C188.848 67.4661 188.763 67.3948 188.694 67.3089C188.625 67.2229 188.574 67.1239 188.543 67.0178C188.513 66.9118 188.504 66.8007 188.518 66.6912C188.555 66.469 188.678 66.2703 188.859 66.1371C189.041 66.004 189.267 65.9469 189.49 65.978C189.6 65.9886 189.706 66.021 189.803 66.0733C189.9 66.1257 189.986 66.197 190.055 66.283C190.124 66.3689 190.175 66.4679 190.205 66.574C190.235 66.6801 190.244 66.7911 190.231 66.9006Z" fill="#263238"/>
<path d="M191.564 66.3293C191.44 66.4199 190.88 65.8313 189.965 65.6728C189.049 65.5143 188.302 65.8539 188.218 65.7237C188.133 65.5935 188.319 65.486 188.653 65.3219C189.097 65.1199 189.592 65.0586 190.072 65.1464C190.548 65.2278 190.986 65.4599 191.321 65.8086C191.564 66.0746 191.627 66.2897 191.564 66.3293Z" fill="#263238"/>
<path d="M193.685 73.7038C194.193 73.6388 194.708 73.6388 195.217 73.7038C195.454 73.7038 195.686 73.7038 195.754 73.5623C195.814 73.3247 195.803 73.0743 195.72 72.8435C195.601 72.2379 195.477 71.604 195.341 70.9417C194.827 68.2419 194.504 66.0345 194.612 66.0119C194.719 65.9893 195.222 68.1684 195.742 70.8738C195.861 71.536 195.98 72.17 196.087 72.7756C196.187 73.0834 196.173 73.4168 196.048 73.7151C195.999 73.7913 195.935 73.8558 195.859 73.9038C195.782 73.9517 195.696 73.982 195.607 73.9925C195.471 74.0076 195.335 74.0076 195.2 73.9925C194.685 73.9592 194.176 73.8623 193.685 73.7038Z" fill="#263238"/>
<path d="M192.413 84.6446C189.283 84.134 186.357 82.7622 183.961 80.6826C183.961 80.6826 185.312 85.6181 192.051 86.1615L192.413 84.6446Z" fill="#AA6550"/>
<path d="M192.91 75.844C192.773 75.5959 192.576 75.3861 192.337 75.2339C192.098 75.0816 191.825 74.9917 191.542 74.9724C191.338 74.9566 191.133 74.9815 190.939 75.0456C190.745 75.1097 190.566 75.2118 190.411 75.3459C190.262 75.4775 190.157 75.6519 190.111 75.8453C190.064 76.0388 190.078 76.2419 190.151 76.427C190.269 76.614 190.439 76.7624 190.64 76.8539C190.841 76.9454 191.064 76.9761 191.282 76.9421C191.739 76.8621 192.177 76.6949 192.571 76.4496C192.688 76.3941 192.793 76.3173 192.882 76.2232C192.924 76.1789 192.952 76.1227 192.962 76.0622C192.973 76.0016 192.964 75.9394 192.938 75.8836" fill="#AA6550"/>
<path d="M190.914 73.8628C191.067 73.8628 190.914 74.8703 191.615 75.725C192.316 76.5796 193.418 76.6589 193.401 76.8004C193.384 76.9419 193.13 76.9475 192.683 76.8853C192.101 76.7909 191.571 76.4944 191.185 76.0476C190.813 75.6179 190.624 75.0589 190.66 74.4911C190.665 74.0723 190.818 73.8402 190.914 73.8628Z" fill="#263238"/>
<path d="M185.956 53.6962C187.726 57.6073 193.458 62.3617 197.89 64.0483C197.483 63.2446 194.996 60.975 194.594 60.1712C196.381 62.1126 198.964 64.7502 201.695 65.4124C202.009 65.5167 202.347 65.5265 202.667 65.4407C202.844 65.3505 202.997 65.2209 203.116 65.0619C203.234 64.903 203.315 64.7188 203.351 64.5238C203.881 62.5524 204.196 60.5294 204.29 58.4902C204.383 56.7705 203.817 55.08 202.707 53.7641C201.197 52.0661 198.75 51.2511 196.364 50.7417C194.4 50.2344 192.357 50.119 190.349 50.4021C188.387 50.7757 186.555 51.9077 185.967 53.5774" fill="#263238"/>
<path d="M175.391 68.4178C175.358 66.9064 175.415 65.3945 175.56 63.8898C176.007 60.4372 177.087 47.889 188.654 51.1152L187.421 54.3357C187.421 54.3357 188.309 62.4125 182.373 66.7481C182.373 66.7481 182.401 74.8136 178.285 77.7228C178.285 77.7228 175.419 72.2553 175.391 68.4404" fill="#263238"/>
<path d="M182.621 66.1822C181.937 65.9047 181.19 65.8205 180.461 65.9388C179.734 66.0651 179.084 66.4714 178.652 67.0708C178.26 67.7018 178.12 68.458 178.262 69.1877C178.408 69.9117 178.713 70.5942 179.155 71.1856C179.442 71.6303 179.829 72.0008 180.286 72.2667C180.519 72.392 180.779 72.4576 181.043 72.4576C181.308 72.4576 181.568 72.392 181.801 72.2667" fill="#B78876"/>
<path d="M181.473 70.4098C181.546 70.4495 181.162 70.823 180.546 70.5344C180.384 70.4461 180.241 70.3266 180.126 70.1828C180.01 70.0391 179.924 69.8738 179.873 69.6967C179.742 69.2974 179.692 68.876 179.726 68.4571C179.75 68.0092 179.934 67.585 180.246 67.2629C180.376 67.1246 180.536 67.018 180.713 66.9513C180.891 66.8845 181.081 66.8595 181.269 66.878C181.942 66.9799 182.067 67.478 181.987 67.478C181.908 67.478 181.71 67.2346 181.253 67.2629C180.969 67.3192 180.715 67.475 180.535 67.7022C180.356 67.9294 180.264 68.2131 180.274 68.5024C180.224 69.2495 180.388 69.9684 180.744 70.2004C181.1 70.4325 181.439 70.3419 181.473 70.4098Z" fill="#AA6550"/>
<path d="M249.596 66.726C249.519 66.8968 249.414 67.0536 249.285 67.1901C248.915 67.5834 248.437 67.8589 247.912 67.9825C247.077 68.1917 246.199 68.1302 245.402 67.807C244.378 67.3554 243.426 66.7567 242.575 66.0298C241.603 65.294 240.517 64.4223 239.126 64.1224C238.407 63.9863 237.666 64.0173 236.961 64.2129C236.208 64.4324 235.479 64.7263 234.785 65.0902C234.061 65.4581 233.326 65.8656 232.523 66.2222C231.724 66.6142 230.856 66.845 229.968 66.9014C229.031 66.9324 228.109 66.6649 227.333 66.1373C226.567 65.5797 225.899 64.8988 225.355 64.1224C224.224 62.6168 223.308 60.9811 221.929 59.9113C221.259 59.3847 220.461 59.0484 219.617 58.9378C218.8 58.8457 217.974 58.8819 217.169 59.0453C215.586 59.3397 214.105 59.8434 212.646 60.0302C211.293 60.1938 209.92 60.0743 208.615 59.6793C206.722 59.1151 205.03 58.0213 203.736 56.5266C203.262 55.9874 202.866 55.3833 202.561 54.7324C202.594 54.7655 202.623 54.8037 202.645 54.8456C202.702 54.9418 202.775 55.055 202.866 55.1965C204.212 57.2866 206.278 58.8092 208.672 59.4755C209.955 59.8525 211.303 59.9585 212.629 59.7868C214.054 59.5944 215.524 59.085 217.152 58.7793C217.984 58.6028 218.839 58.5627 219.685 58.6605C220.577 58.7749 221.422 59.1267 222.132 59.6793C223.58 60.8113 224.501 62.464 225.621 63.9469C226.143 64.6976 226.787 65.3557 227.526 65.8939C228.249 66.3887 229.11 66.6404 229.985 66.6128C230.838 66.5599 231.671 66.3387 232.438 65.9619C233.213 65.6223 233.942 65.2204 234.672 64.8299C235.384 64.4569 236.132 64.1572 236.905 63.9356C237.642 63.7363 238.415 63.7073 239.166 63.8507C240.475 64.2417 241.68 64.9205 242.694 65.8373C243.524 66.5617 244.453 67.1639 245.452 67.6259C246.217 67.9473 247.062 68.0244 247.872 67.8466C248.383 67.7322 248.854 67.4819 249.235 67.1222C249.495 66.8901 249.585 66.7203 249.596 66.726Z" fill="#263238"/>
<path d="M119.388 179.162L109.133 199.872L112.192 199.985L103.503 216.445H108.07L100.947 231.064H140.741L131.978 216.445L136.179 216.258L127.784 199.81L130.887 199.629L119.388 179.162Z" fill="#455A64"/>
<path d="M121.118 203.194C121.203 203.194 121.118 211.967 120.982 222.784C120.847 233.6 120.626 242.367 120.547 242.367C120.468 242.367 120.547 233.594 120.688 222.778C120.83 211.962 121.039 203.194 121.118 203.194Z" fill="#263238"/>
<path d="M125.997 208.509C125.84 208.841 125.632 209.147 125.381 209.414C124.822 210.095 124.226 210.743 123.594 211.356C122.871 212.086 122.215 212.737 121.757 213.229C121.527 213.513 121.27 213.772 120.988 214.005C121.143 213.671 121.349 213.363 121.599 213.093C122.16 212.416 122.757 211.768 123.385 211.152C124.115 210.422 124.77 209.771 125.228 209.279C125.455 208.994 125.713 208.736 125.997 208.509Z" fill="#263238"/>
<path d="M121.023 214.215C120.217 213.763 119.459 213.23 118.761 212.624C117.999 212.089 117.294 211.477 116.658 210.796C117.464 211.247 118.222 211.78 118.92 212.386C119.683 212.92 120.388 213.533 121.023 214.215Z" fill="#263238"/>
<path d="M120.75 224.374C119.863 223.746 119.012 223.067 118.201 222.342C117.326 221.693 116.49 220.994 115.696 220.248C116.665 220.758 117.569 221.383 118.387 222.11C119.265 222.764 120.059 223.525 120.75 224.374Z" fill="#263238"/>
<path d="M126.422 218.092C126.495 218.148 125.331 219.665 123.691 221.335L121.628 223.497C121.367 223.819 121.073 224.113 120.751 224.374C120.678 224.318 121.842 222.801 123.482 221.131L125.545 218.975C125.807 218.652 126.101 218.356 126.422 218.092Z" fill="#263238"/>
</svg>
