<svg width="63" height="66" viewBox="0 0 63 66" fill="none" xmlns="http://www.w3.org/2000/svg">
    <path
        d="M37.9671 7.13243C36.0007 7.13243 34.4009 5.5326 34.4009 3.56621C34.4009 1.59983 36.0007 0 37.9671 0C39.9335 0 41.5333 1.59983 41.5333 3.56621C41.5333 5.5326 39.9335 7.13243 37.9671 7.13243Z"
        fill="#F38320" />
    <path
        d="M37.9673 7.13243C37.9673 5.0746 37.9673 1.91047 37.9673 0C39.9337 0 41.5335 1.59983 41.5335 3.56621C41.5335 5.5326 39.9337 7.13243 37.9673 7.13243Z"
        fill="#C25E06" />
    <path d="M40.2729 27.5352L32.314 41.575H43.1224L50.7597 27.5352H40.2729Z" fill="#4D2603" />
    <path
        d="M45.8147 27.5353L41.2364 35.3425C40.1352 37.2202 38.1215 38.3739 35.9447 38.3739C32.5567 38.3739 29.8102 35.6274 29.8102 32.2394V27.5354H22.3056C22.3056 27.5354 22.681 33.6036 21.3101 35.6015C17.5629 41.0621 17.8956 45.6306 17.8956 45.6306L14.2529 49.7292L20.9201 59.2247L26.3425 55.6149L38.5907 48.5142C42.8979 46.0171 46.4468 42.3979 48.8588 38.0424L54.6777 27.5352H45.8147V27.5353Z"
        fill="#793B04" />
    <path d="M7.24448 49.4397L20.7959 65.2119L29.2907 57.9132L15.7393 42.141L7.24448 49.4397Z"
        fill="#1F2430" />
    <path d="M11.0159 4.02832H3.52686V7.84926H11.0159V4.02832Z" fill="#1F2430" />
    <path d="M11.0159 19.3125H3.52686V23.1334H11.0159V19.3125Z" fill="#1F2430" />
    <path d="M11.0158 11.6709H0V15.4918H11.0158V11.6709Z" fill="#1F2430" />
    <path
        d="M60.4281 27.5358H15.5068C15.5068 15.151 25.5827 5.0752 37.9675 5.0752C50.3523 5.0752 60.4281 15.151 60.4281 27.5358Z"
        fill="#F7AC6A" />
    <path
        d="M60.4279 27.5358H37.9673C37.9673 15.151 37.9673 11.6707 37.9673 5.0752C50.3521 5.0752 60.4279 15.151 60.4279 27.5358Z"
        fill="#F38320" />
    <path d="M62.6731 25.625H13.2632V29.4459H62.6731V25.625Z" fill="#F38320" />
    <path d="M62.6716 25.625H38.0278V29.4459H62.6716V25.625Z" fill="#C25E06" />
    <path
        d="M21.4627 59.4791C22.5178 59.4791 23.3732 58.6238 23.3732 57.5687C23.3732 56.5136 22.5178 55.6582 21.4627 55.6582C20.4076 55.6582 19.5522 56.5136 19.5522 57.5687C19.5522 58.6238 20.4076 59.4791 21.4627 59.4791Z"
        fill="white" />
</svg>
