<svg width="59" height="71" viewBox="0 0 59 71" fill="none" xmlns="http://www.w3.org/2000/svg">
    <path
        d="M45.6039 27.2243V33.443C45.6039 42.5872 38.165 50.0262 29.0207 50.0262C19.8764 50.0262 12.4375 42.5872 12.4375 33.443V27.2243C12.4375 26.08 13.3662 25.1514 14.5104 25.1514H43.531C44.6752 25.1514 45.6039 26.08 45.6039 27.2243Z"
        fill="#FFE1BA" />
    <path
        d="M45.6037 27.2243V33.443C45.6037 42.5872 38.1648 50.0262 29.0205 50.0262V25.1514H43.5308C44.675 25.1514 45.6037 26.08 45.6037 27.2243Z"
        fill="#FFBFAB" />
    <path
        d="M41.458 50.1401L40.0305 53.2494L37.3122 50.0254H20.729L19.0707 52.9275L16.5832 50.1401C7.26759 51.1738 0 59.095 0 68.6815C0 69.8257 0.928659 70.7544 2.0729 70.7544H12.4374C12.6429 70.716 10.2714 71.1589 29.0206 67.6575L45.6038 70.7544H55.9683C57.1125 70.7544 58.0412 69.8257 58.0412 68.6815C58.0412 59.095 50.7735 51.1738 41.458 50.1401Z"
        fill="#F7AC6A" />
    <path
        d="M58.0411 68.6815C58.0411 69.8257 57.1125 70.7544 55.9682 70.7544H45.6037L29.0205 67.6575V50.0254H37.3121L40.0304 53.2494L41.4579 50.1401C50.7734 51.1738 58.0411 59.095 58.0411 68.6815Z"
        fill="#F38320" />
    <path
        d="M45.6039 60.3903V70.7548H12.4375V60.3903C12.4375 59.246 13.3662 58.3174 14.5104 58.3174H43.531C44.6752 58.3174 45.6039 59.246 45.6039 60.3903Z"
        fill="#4C5059" />
    <path
        d="M45.6038 60.3903V70.7549H29.0205V58.3174H43.5309C44.6751 58.3174 45.6038 59.246 45.6038 60.3903Z"
        fill="#1F2430" />
    <path
        d="M20.7288 50.0254V60.39C20.7288 61.5342 19.8002 62.4629 18.6559 62.4629C17.5117 62.4629 16.583 61.5342 16.583 60.39V50.1401C17.2629 50.0641 17.9553 50.0254 18.6559 50.0254H20.7288Z"
        fill="#4C5059" />
    <path
        d="M41.4578 50.1401V60.39C41.4578 61.5342 40.5292 62.4629 39.3849 62.4629C38.2407 62.4629 37.312 61.5342 37.312 60.39V50.0254H39.3849C40.0856 50.0254 40.7779 50.0641 41.4578 50.1401Z"
        fill="#1F2430" />
    <path
        d="M45.6037 16.8596H45.08C43.7713 11.7893 40.105 7.59787 35.2392 5.62861V2.0729C35.2392 0.928659 34.3106 0 33.1663 0H24.8747C23.7305 0 22.8018 0.928659 22.8018 2.0729V5.62861C17.8572 7.62965 14.1509 11.9247 12.8989 17.107C10.2414 17.8712 8.2915 20.3241 8.2915 23.2248V27.2241C8.2915 28.3683 9.22016 29.297 10.3644 29.297H47.6766C48.8209 29.297 49.7495 28.3683 49.7495 27.2241V21.0054C49.7495 18.7197 47.8894 16.8596 45.6037 16.8596Z"
        fill="#F7AC6A" />
    <path
        d="M49.7495 21.0054V27.2241C49.7495 28.3683 48.8209 29.297 47.6766 29.297H29.0205V0H33.1663C34.3105 0 35.2392 0.928659 35.2392 2.0729V5.62861C40.105 7.59787 43.7713 11.7893 45.08 16.8596H45.6037C47.8894 16.8596 49.7495 18.7197 49.7495 21.0054Z"
        fill="#F38320" />
    <path
        d="M34.6325 20.3989L30.4867 24.5448C30.0279 25.0036 29.5124 25.1901 29.0204 25.1791C27.4312 25.1514 26.0727 23.0937 27.5542 21.6123L29.0204 20.1474L29.6672 19.5007L29.0204 19.1773L23.9473 16.6414C22.6842 16.0085 22.4092 14.3212 23.4084 13.3206L27.5542 9.17481C28.013 8.71601 28.5285 8.52945 29.0204 8.5405C30.6097 8.56814 31.9681 10.6259 30.4867 12.1073L29.0204 13.5721L28.3737 14.2189L29.0204 14.5423L34.0935 17.0781C35.3566 17.7111 35.6316 19.3984 34.6325 20.3989Z"
        fill="#4C5059" />
    <path
        d="M30.4867 12.1068L29.0205 13.5717V8.54004C30.6097 8.56768 31.9682 10.6254 30.4867 12.1068Z"
        fill="#1F2430" />
    <path
        d="M34.6326 20.3987L30.4867 24.5445C30.0279 25.0033 29.5125 25.1898 29.0205 25.1788V20.1471L29.6673 19.5004L29.0205 19.177V14.542L34.0936 17.0779C35.3567 17.7108 35.6317 19.3981 34.6326 20.3987Z"
        fill="#1F2430" />
</svg>
