<svg width="67" height="67" viewBox="0 0 67 67" fill="none" xmlns="http://www.w3.org/2000/svg">
    <path d="M51.166 15.7031H67V67H51.166V15.7031Z" fill="#1F2430" />
    <path d="M0 15.7031H15.834V67H0V15.7031Z" fill="#4C5059" />
    <path
        d="M53.7832 65.6914L39.3887 67L33.5 65.6914L27.6112 67H11.9082V0H33.5L53.7832 1.30859L55.0918 37.7312L53.7832 65.6914Z"
        fill="#F7AC6A" />
    <path d="M55.0918 67H39.3887L33.5 64.3828V0H55.0918V67Z" fill="#F38320" />
    <path d="M19.7598 7.85156H23.6855V11.7773H19.7598V7.85156Z" fill="#4C5059" />
    <path d="M27.6113 7.85156H31.5371V11.7773H27.6113V7.85156Z" fill="#4C5059" />
    <path d="M35.4629 7.85156H39.3887V11.7773H35.4629V7.85156Z" fill="#1F2430" />
    <path d="M43.3145 7.85156H47.2402V11.7773H43.3145V7.85156Z" fill="#1F2430" />
    <path d="M19.7598 15.7031H23.6855V19.6289H19.7598V15.7031Z" fill="#4C5059" />
    <path d="M27.6113 15.7031H31.5371V19.6289H27.6113V15.7031Z" fill="#4C5059" />
    <path d="M35.4629 15.7031H39.3887V19.6289H35.4629V15.7031Z" fill="#1F2430" />
    <path d="M43.3145 15.7031H47.2402V19.6289H43.3145V15.7031Z" fill="#1F2430" />
    <path d="M19.7598 23.5547H23.6855V27.4805H19.7598V23.5547Z" fill="#4C5059" />
    <path d="M27.6113 23.5547H31.5371V27.4805H27.6113V23.5547Z" fill="#4C5059" />
    <path d="M35.4629 23.5547H39.3887V27.4805H35.4629V23.5547Z" fill="#1F2430" />
    <path d="M43.3145 23.5547H47.2402V27.4805H43.3145V23.5547Z" fill="#1F2430" />
    <path d="M19.7598 31.4062H23.6855V35.332H19.7598V31.4062Z" fill="#4C5059" />
    <path d="M27.6113 31.4062H31.5371V35.332H27.6113V31.4062Z" fill="#4C5059" />
    <path d="M35.4629 31.4062H39.3887V35.332H35.4629V31.4062Z" fill="#1F2430" />
    <path d="M43.3145 31.4062H47.2402V35.332H43.3145V31.4062Z" fill="#1F2430" />
    <path d="M19.7598 39.2578H23.6855V43.1836H19.7598V39.2578Z" fill="#4C5059" />
    <path d="M27.6113 39.2578H31.5371V43.1836H27.6113V39.2578Z" fill="#4C5059" />
    <path d="M35.4629 39.2578H39.3887V43.1836H35.4629V39.2578Z" fill="#1F2430" />
    <path d="M43.3145 39.2578H47.2402V43.1836H43.3145V39.2578Z" fill="#1F2430" />
    <path d="M27.6113 49.0723H39.3887V67H27.6113V49.0723Z" fill="#F9FBFF" />
    <path d="M33.5 49.0723H39.3887V67H33.5V49.0723Z" fill="#EBF1EF" />
</svg>
