<svg width="72" height="62" viewBox="0 0 72 62" fill="none" xmlns="http://www.w3.org/2000/svg">
    <path
        d="M66.126 44.4708H25.124C24.152 44.4708 23.309 43.7994 23.0926 42.8527L14.8585 6.84714L1.66217 4.12082C0.535112 3.88813 -0.189497 2.78663 0.0436119 1.66068C0.276581 0.534729 1.37933 -0.189186 2.50612 0.0435057L17.0137 3.04071C17.8125 3.20575 18.4415 3.82131 18.6231 4.61579L26.7852 40.3072H66.1258C67.2767 40.3072 68.2096 41.2393 68.2096 42.389C68.2096 43.5387 67.2768 44.4708 66.126 44.4708Z"
        fill="#4C5059" />
    <path
        d="M69.5615 19.3916L25.1845 7.99817C24.4803 7.81744 23.7332 8.01623 23.2124 8.52274C22.6916 9.02924 22.4725 9.77024 22.6345 10.4782L30.0382 42.8532C30.2547 43.7999 31.0976 44.4713 32.0697 44.4713H66.1256C67.1657 44.4713 68.0464 43.7052 68.1895 42.676L71.1069 21.6945C71.2526 20.6458 70.5877 19.655 69.5615 19.3916Z"
        fill="#F7AC6A" />
    <path
        d="M69.562 19.3914L48.7412 14.0459V44.471H66.1261C67.1662 44.471 68.047 43.7049 68.1901 42.6757L71.1074 21.6942C71.2531 20.6456 70.5882 19.6548 69.562 19.3914Z"
        fill="#F38320" />
    <path
        d="M35.2058 47.2461C31.3758 47.2461 28.2598 50.359 28.2598 54.1853C28.2598 58.0116 31.3758 61.1245 35.2058 61.1245C39.0358 61.1245 42.1518 58.0116 42.1518 54.1853C42.1518 50.359 39.0358 47.2461 35.2058 47.2461Z"
        fill="#4C5059" />
    <path
        d="M56.0442 47.2461C52.2141 47.2461 49.0981 50.359 49.0981 54.1853C49.0981 58.0116 52.2141 61.1245 56.0442 61.1245C59.8742 61.1245 62.9902 58.0116 62.9902 54.1853C62.99 50.359 59.8742 47.2461 56.0442 47.2461Z"
        fill="#DFE4EA" />
    <path
        d="M56.0442 47.2461C52.2141 47.2461 49.0981 50.359 49.0981 54.1853C49.0981 58.0116 52.2141 61.1245 56.0442 61.1245C59.8742 61.1245 62.9902 58.0116 62.9902 54.1853C62.99 50.359 59.8742 47.2461 56.0442 47.2461Z"
        fill="#1F2430" />
    <path
        d="M39.8231 21.4326C38.6722 21.4326 37.7393 22.3646 37.7393 23.5143V32.6742C37.7393 33.8239 38.6722 34.7559 39.8231 34.7559C40.9739 34.7559 41.9069 33.8239 41.9069 32.6742V23.5143C41.9069 22.3646 40.9739 21.4326 39.8231 21.4326Z"
        fill="#C25E06" />
    <path
        d="M57.659 26.4287C56.5082 26.4287 55.5752 27.3607 55.5752 28.5104V32.674C55.5752 33.8237 56.5082 34.7557 57.659 34.7557C58.8098 34.7557 59.7428 33.8237 59.7428 32.674V28.5104C59.7428 27.3607 58.81 26.4287 57.659 26.4287Z"
        fill="#A95205" />
    <path
        d="M48.741 24.208C47.5902 24.208 46.6572 25.14 46.6572 26.2897V32.6738C46.6572 33.8235 47.5902 34.7555 48.741 34.7555C49.8919 34.7555 50.8248 33.8235 50.8248 32.6738V26.2897C50.8248 25.14 49.8919 24.208 48.741 24.208Z"
        fill="#C25E06" />
    <path
        d="M48.7414 24.208L48.7412 34.7557C48.7412 34.7557 48.7412 34.7557 48.7414 34.7557C49.8922 34.7557 50.8252 33.8237 50.8252 32.674V26.2899C50.8252 25.14 49.8922 24.208 48.7414 24.208Z"
        fill="#A95205" />
</svg>
