<svg width="270" height="271" viewBox="0 0 270 271" fill="none" xmlns="http://www.w3.org/2000/svg">
<path d="M141.707 63.3165C142.305 63.104 142.883 62.8392 143.435 62.5251C144.205 62.0492 144.872 61.4239 145.398 60.6859C145.923 59.9479 146.297 59.1119 146.497 58.2271C146.625 57.6199 146.676 56.9989 146.648 56.3789C146.583 55.6949 146.45 55.0194 146.249 54.3626C145.876 52.9588 145.471 51.4304 145.034 49.799L142.085 38.6663L138.521 25.1705C138.203 23.9564 137.879 22.7261 137.544 21.4686C137.278 20.2121 136.664 19.0565 135.773 18.1353C134.852 17.1949 133.67 16.5546 132.381 16.2979C131.042 16.0665 129.666 16.1917 128.391 16.6611L93.0153 26.016C91.502 26.421 90.1826 27.3552 89.2947 28.6501C88.4143 29.9253 88.0212 31.4762 88.1877 33.0187C88.2993 33.7875 88.469 34.5467 88.6953 35.2896C88.8951 36.0539 89.0895 36.8127 89.2893 37.566C89.6853 39.0764 90.0759 40.5741 90.4611 42.0592C92.0109 48.0212 93.5013 53.7285 94.9269 59.1918C95.6469 61.9235 96.3381 64.5829 97.0005 67.1701C97.2242 68.4397 97.769 69.6304 98.5827 70.628C99.3856 71.5741 100.44 72.2715 101.623 72.6389C103.988 73.4735 106.337 72.3408 108.578 71.853L115.058 70.1673L134.558 65.1159L139.866 63.7663L141.248 63.4303C141.561 63.3544 141.723 63.3327 141.723 63.3327C141.723 63.3327 141.572 63.3923 141.264 63.4791L139.893 63.8693L134.606 65.311L115.166 70.5251L108.686 72.2432L105.252 73.1483C103.991 73.4696 102.665 73.4308 101.425 73.0363C100.184 72.6417 99.0783 71.9071 98.2317 70.9153C97.368 69.8699 96.786 68.6196 96.5415 67.2839C95.8611 64.704 95.1627 62.0464 94.4463 59.3111C93.0153 53.8531 91.5087 48.1296 89.9535 42.1893C89.5647 40.7042 89.1723 39.2065 88.7763 37.6961C88.5747 36.9445 88.3749 36.1857 88.1769 35.4197C87.937 34.6525 87.7565 33.8679 87.6369 33.0729C87.4577 31.4065 87.8812 29.731 88.8303 28.352C89.7916 26.9351 91.2294 25.9133 92.8803 25.474L128.261 16.1733C129.609 15.6902 131.058 15.5669 132.468 15.8156C133.844 16.104 135.103 16.8008 136.08 17.8155C137.023 18.7981 137.672 20.0261 137.954 21.3602C138.278 22.6122 138.602 23.848 138.915 25.0621C140.174 29.9401 141.345 34.4387 142.415 38.5742C143.484 42.7096 144.445 46.4386 145.293 49.7231C145.714 51.3672 146.106 52.892 146.47 54.2976C146.672 54.973 146.81 55.6663 146.88 56.368C146.904 57.0093 146.842 57.6509 146.697 58.2759C146.483 59.1784 146.089 60.0281 145.539 60.7734C144.988 61.5187 144.293 62.1442 143.495 62.6119C143.084 62.8557 142.645 63.0487 142.188 63.1864C141.869 63.2839 141.707 63.3165 141.707 63.3165Z" fill="#E0E0E0"/>
<path d="M127.484 49.4417C127.378 49.4895 127.268 49.5276 127.155 49.5555L126.204 49.8265L122.662 50.8076L110.782 54.0162H110.685L110.641 53.9241L109.821 52.0325L104.07 38.2006L104.156 38.2386L100.981 39.0516L100.133 39.2575L99.8359 39.3172C99.928 39.2756 100.024 39.2429 100.122 39.2196L100.959 38.9757L104.124 38.0977H104.188V38.1573L110.015 51.962L110.814 53.8753L110.679 53.8048L122.602 50.6721L126.161 49.7615L127.122 49.5284C127.24 49.4896 127.361 49.4606 127.484 49.4417Z" fill="#E0E0E0"/>
<path d="M109.324 50.5474C109.324 50.5474 109.351 50.5474 109.405 50.5149L109.648 50.439L110.604 50.168L114.178 49.1815L126.534 45.8482L126.453 45.9675C126.269 43.7995 126.069 41.4201 125.859 38.9703C125.756 37.7128 125.648 36.4771 125.551 35.2955L125.697 35.3985L111.117 39.2358L106.797 40.3524L105.63 40.645L105.328 40.7101C105.258 40.7101 105.225 40.7101 105.22 40.7101L105.322 40.6776L105.619 40.5854L106.78 40.2548L111.1 39.0732L125.68 35.16L125.81 35.1221V35.2576C125.907 36.4391 126.01 37.6749 126.118 38.9323C126.323 41.3822 126.517 43.7453 126.701 45.935V46.0271H126.609L114.232 49.2791L110.641 50.2005L109.675 50.439L109.426 50.4986L109.324 50.5474Z" fill="#E0E0E0"/>
<path d="M116.1 57.3489C116.1 57.3489 116.041 57.208 115.9 56.9749C115.703 56.651 115.405 56.4014 115.053 56.2649C114.797 56.1666 114.522 56.133 114.251 56.167C113.979 56.2011 113.721 56.3017 113.497 56.46C113.33 56.6034 113.193 56.7795 113.096 56.9777C112.998 57.1759 112.942 57.392 112.931 57.6127C112.919 57.8334 112.953 58.0541 113.029 58.2614C113.105 58.4687 113.223 58.6582 113.375 58.8183C113.527 58.9784 113.709 59.1058 113.912 59.1926C114.114 59.2794 114.332 59.3239 114.553 59.3234C114.773 59.3228 114.991 59.2772 115.193 59.1893C115.395 59.1015 115.577 58.9732 115.728 58.8123C115.966 58.519 116.1 58.1551 116.111 57.7771C116.111 57.5061 116.079 57.3543 116.111 57.3489C116.18 57.4808 116.216 57.628 116.214 57.7771C116.235 58.1854 116.113 58.5884 115.868 58.9153C115.682 59.1648 115.436 59.3622 115.152 59.4884C114.868 59.6147 114.557 59.6655 114.248 59.6361C113.871 59.6042 113.513 59.4559 113.222 59.2117C112.932 58.9674 112.725 58.6392 112.628 58.2718C112.531 57.9044 112.549 57.516 112.681 57.1596C112.812 56.8032 113.05 56.4964 113.362 56.2811C113.614 56.1066 113.906 55.9996 114.21 55.9702C114.514 55.9408 114.821 55.99 115.101 56.1131C115.475 56.2776 115.78 56.5668 115.965 56.9315C116.044 57.0573 116.09 57.2007 116.1 57.3489Z" fill="#E0E0E0"/>
<path d="M126.901 54.4816C126.901 54.4816 126.841 54.3353 126.701 54.1077C126.502 53.7851 126.205 53.5359 125.853 53.3976C125.575 53.2905 125.272 53.2627 124.978 53.3174C124.685 53.372 124.412 53.5069 124.19 53.7072C123.969 53.9074 123.806 54.1653 123.721 54.4524C123.636 54.7395 123.632 55.0446 123.708 55.334C123.785 55.6235 123.94 55.886 124.156 56.0927C124.372 56.2994 124.64 56.4423 124.932 56.5055C125.224 56.5687 125.527 56.5498 125.809 56.4509C126.09 56.352 126.339 56.177 126.528 55.945C126.766 55.6497 126.901 55.2841 126.912 54.9044C126.912 54.6388 126.879 54.4871 126.912 54.4816C126.981 54.6113 127.017 54.757 127.014 54.9044C127.037 55.3129 126.915 55.7164 126.669 56.0426C126.485 56.288 126.243 56.4828 125.965 56.6089C125.686 56.7349 125.38 56.7881 125.076 56.7635C124.699 56.7312 124.341 56.5827 124.052 56.3384C123.763 56.094 123.556 55.7657 123.46 55.3986C123.364 55.0315 123.384 54.6437 123.517 54.2883C123.649 53.9329 123.888 53.6275 124.201 53.4139C124.453 53.2394 124.746 53.1324 125.051 53.103C125.356 53.0736 125.664 53.1228 125.945 53.2459C126.32 53.4088 126.625 53.6984 126.809 54.0643C126.873 54.1938 126.904 54.3371 126.901 54.4816Z" fill="#E0E0E0"/>
<path d="M225.008 257.802C212.885 251.84 208.219 237.954 206.691 225.081C206.437 222.913 205.854 220.745 206.583 218.686C207.312 216.626 209.472 215.006 211.519 215.613C213.214 216.117 214.186 217.857 215.299 219.244C216.794 221.099 218.78 222.492 221.028 223.266C222.492 223.759 224.236 223.932 225.462 222.984C227.146 221.683 226.968 219.103 226.633 216.978L224.738 205.103C224.398 202.979 224.058 200.811 224.409 198.691C224.76 196.572 225.926 194.475 227.854 193.597C229.782 192.719 232.455 193.499 233.194 195.515C233.508 196.35 233.47 197.277 233.664 198.149C233.859 199.022 234.415 199.938 235.284 200.057C236.154 200.176 236.904 199.439 237.444 198.719C239.302 196.236 240.36 193.244 241.327 190.28C242.293 187.315 243.206 184.29 244.831 181.646C246.457 179.001 248.914 176.719 251.922 176.074C254.929 175.429 258.45 176.816 259.676 179.683C260.902 182.551 259.654 185.873 258.121 188.616C255.862 192.649 253.034 196.333 249.724 199.553C249.13 200.133 248.482 200.756 248.347 201.586C248.104 203.071 249.659 204.296 251.122 204.523C252.786 204.811 254.47 204.382 256.155 204.317C257.84 204.252 259.735 204.713 260.599 206.187C261.804 208.225 260.34 210.783 258.785 212.55C255.671 216.081 251.976 219.05 247.861 221.325C246.387 222.133 244.826 222.892 243.735 224.182C242.644 225.472 242.185 227.504 243.195 228.886C244.205 230.268 246.203 230.447 247.791 229.889C249.378 229.331 250.701 228.22 252.165 227.39C254.908 225.835 258.699 225.455 260.95 227.694C262.43 229.168 262.889 231.461 262.57 233.537C262.252 235.612 261.258 237.504 260.162 239.282C256.339 245.499 251.047 250.843 244.653 254.236C238.26 257.629 232.098 259.233 225.013 257.802" fill="#F5F5F5"/>
<path d="M227.07 249.266C228.119 241.96 229.584 234.722 231.461 227.586C231.947 225.685 232.427 223.81 232.902 221.96C233.378 220.117 233.853 218.29 234.425 216.54C235.534 213.163 236.826 209.85 238.297 206.616C239.679 203.521 241.105 200.654 242.455 197.944C243.805 195.234 245.128 192.773 246.424 190.562C248.446 187.061 250.743 183.728 253.293 180.594C254.189 179.51 254.913 178.648 255.415 178.09L255.987 177.456C256.048 177.38 256.117 177.311 256.193 177.25C256.14 177.331 256.082 177.409 256.02 177.483L255.48 178.144C255.005 178.719 254.297 179.57 253.417 180.697C250.92 183.859 248.664 187.206 246.667 190.708C245.393 192.919 244.097 195.407 242.752 198.095C241.407 200.784 240.003 203.683 238.632 206.767C237.176 209.994 235.897 213.298 234.798 216.664C234.231 218.415 233.766 220.225 233.286 222.084C232.805 223.943 232.335 225.808 231.849 227.705C229.977 234.825 228.503 242.045 227.432 249.331" fill="#E0E0E0"/>
<path d="M234.533 216.507C234.389 216.228 234.273 215.936 234.187 215.634C233.987 215.06 233.723 214.225 233.415 213.19C232.789 211.12 232.027 208.231 231.196 205.06C230.364 201.889 229.576 199 228.906 196.93C228.582 195.9 228.312 195.071 228.118 194.496C227.999 194.207 227.912 193.905 227.858 193.597C228.024 193.863 228.16 194.146 228.263 194.442C228.501 194.984 228.803 195.819 229.171 196.838C229.894 198.881 230.742 201.748 231.574 204.941C232.405 208.133 233.118 210.935 233.68 213.114C233.939 214.095 234.16 214.924 234.338 215.586C234.438 215.884 234.504 216.193 234.533 216.507Z" fill="#E0E0E0"/>
<path d="M260.988 207.195C260.638 207.327 260.276 207.427 259.908 207.493C259.222 207.661 258.223 207.905 256.997 208.241C254.546 208.897 251.187 209.922 247.531 211.212C243.875 212.502 240.624 213.829 238.297 214.854C237.131 215.352 236.196 215.786 235.548 216.079C235.22 216.252 234.877 216.395 234.522 216.507C234.824 216.297 235.144 216.116 235.478 215.965C236.11 215.623 237.028 215.152 238.178 214.615C240.484 213.531 243.735 212.16 247.396 210.859C250.52 209.739 253.7 208.781 256.922 207.987C258.158 207.683 259.168 207.483 259.87 207.363C260.237 207.272 260.611 207.216 260.988 207.195Z" fill="#E0E0E0"/>
<path d="M227.34 248.713C227.247 248.624 227.167 248.522 227.103 248.41L226.482 247.494C225.942 246.692 225.213 245.516 224.322 244.052C222.529 241.125 220.175 237.006 217.642 232.415C215.109 227.825 212.782 223.689 211.07 220.725L208.98 217.223C208.759 216.844 208.575 216.529 208.44 216.269C208.367 216.16 208.309 216.042 208.268 215.917C208.358 216.011 208.437 216.115 208.505 216.226C208.673 216.475 208.878 216.768 209.121 217.142C209.661 217.939 210.395 219.115 211.281 220.578C213.074 223.51 215.423 227.624 217.961 232.22C220.499 236.817 222.821 240.947 224.532 243.906L226.59 247.407L227.13 248.367C227.215 248.473 227.285 248.589 227.34 248.713Z" fill="#E0E0E0"/>
<path d="M261.723 231.434C261.622 231.519 261.509 231.588 261.388 231.64L260.389 232.154L256.706 234.014C253.601 235.585 249.33 237.808 244.615 240.257C239.901 242.707 235.608 244.897 232.465 246.404C230.894 247.157 229.62 247.753 228.729 248.149L227.697 248.599C227.581 248.657 227.457 248.701 227.33 248.729C227.433 248.647 227.545 248.577 227.665 248.523L228.664 248.008L232.341 246.149C235.452 244.583 239.723 242.355 244.437 239.905C249.151 237.455 253.444 235.266 256.582 233.759C258.153 233.005 259.433 232.409 260.324 232.014L261.35 231.569C261.468 231.507 261.593 231.462 261.723 231.434Z" fill="#E0E0E0"/>
<path d="M17.5342 61.6203C17.5342 61.6203 11.5132 63.0891 16.2922 76.173C21.0712 89.2569 24.673 95.8855 24.673 95.8855C24.673 95.8855 25.4398 98.8828 22.9828 99.0345C20.5258 99.1863 15.3526 97.7012 13.927 100.514C12.4474 103.436 14.3158 106.59 18.4954 109.663C22.675 112.736 31.585 119.809 32.4004 120.454C33.2158 121.099 33.88 122.519 32.2276 122.893C30.5752 123.267 18.5386 123.067 18.787 128.801C19.0354 134.536 32.071 141.186 33.4804 141.939C34.8898 142.693 35.1706 143.365 34.9546 144.167C34.7386 144.969 30.694 144.519 27.2704 144.6C23.8468 144.682 19.8886 145.386 20.3098 148.687C20.731 151.988 27.9994 159.69 47.3962 164.004L56.5114 165.413L62.4514 158.253C74.1856 142.167 74.5852 131.56 72.7114 128.801C70.8376 126.042 67.4248 128.14 64.795 130.346C62.1652 132.552 59.4274 135.565 58.7362 135.11C58.045 134.655 57.8128 133.961 58.3744 132.46C58.936 130.958 64.3738 117.327 60.7882 112.85C57.2026 108.373 48.2926 116.498 46.8022 117.316C45.3118 118.135 44.8906 116.59 45.0688 115.593C45.247 114.595 47.2936 103.365 48.4168 98.2866C49.54 93.208 48.8596 89.6146 45.8302 88.3897C42.9088 87.2135 39.9928 91.7663 38.0488 93.2677C36.1048 94.769 34.7116 92.0211 34.7116 92.0211C34.7116 92.0211 33.0592 84.6553 28.048 71.6581C23.0368 58.661 17.4154 61.6528 17.4154 61.6528" fill="#EBEBEB"/>
<path d="M56.7275 167.63C53.0825 158.075 46.8887 140.975 41.4941 126.324C36.0995 111.674 31.2071 98.4221 27.6107 88.8449C25.8125 84.0699 24.3707 80.1729 23.3393 77.5117C22.8425 76.1784 22.4483 75.1432 22.1837 74.4277C22.0541 74.0809 21.9569 73.8153 21.8867 73.6202C21.8165 73.425 21.7949 73.3438 21.7949 73.3438C21.7949 73.3438 21.8381 73.4305 21.9137 73.6093L22.2377 74.4061L23.4473 77.4684C24.4895 80.1296 25.9799 83.9724 27.7997 88.7745C31.4447 98.3299 36.3695 111.576 41.7641 126.227C47.1587 140.877 53.3201 157.982 56.9165 167.56" fill="#E0E0E0"/>
<path d="M21.0928 102.888C21.3064 102.953 21.5127 103.04 21.7084 103.148C22.0972 103.327 22.6534 103.603 23.3284 103.95C24.6892 104.649 26.5684 105.668 28.588 106.823L33.7828 109.804L35.3596 110.698C35.5515 110.794 35.7326 110.91 35.8996 111.045C35.6849 110.987 35.4782 110.904 35.284 110.795C34.8952 110.617 34.339 110.34 33.664 109.982C32.3032 109.267 30.4564 108.232 28.426 107.072L23.2204 104.129L21.6382 103.245C21.4414 103.151 21.258 103.031 21.0928 102.888Z" fill="#E0E0E0"/>
<path d="M36.6337 110.535C36.5635 110.498 38.4805 106.557 40.9105 101.728C43.3405 96.8987 45.3763 93.018 45.4465 93.0559C45.5167 93.0939 43.5997 97.0342 41.1697 101.863C38.7397 106.693 36.7201 110.568 36.6337 110.535Z" fill="#E0E0E0"/>
<path d="M43.9082 133.408C44.0309 133.21 44.1778 133.028 44.3456 132.866L45.6092 131.511C46.6892 130.362 48.1418 128.801 49.6916 126.958C51.2414 125.116 52.6022 123.457 53.5688 122.227L54.719 120.769C54.8506 120.582 55.0008 120.41 55.1672 120.254C55.069 120.459 54.9495 120.654 54.8108 120.834C54.5624 121.197 54.2006 121.717 53.7308 122.351C52.802 123.614 51.4736 125.327 49.913 127.148C48.3524 128.969 46.862 130.541 45.755 131.652C45.215 132.194 44.7506 132.649 44.4266 132.948C44.2693 133.118 44.0957 133.272 43.9082 133.408Z" fill="#E0E0E0"/>
<path d="M28.3291 129.598C28.5408 129.599 28.7513 129.628 28.9555 129.684L30.6349 130.026C32.0443 130.324 33.9937 130.758 36.1429 131.256C38.2921 131.755 40.2361 132.216 41.6347 132.568L43.2925 132.996C43.4989 133.038 43.7 133.104 43.8919 133.191C43.682 133.19 43.4732 133.161 43.2709 133.104L41.5807 132.79C40.1659 132.492 38.2165 132.058 36.0673 131.56C33.9181 131.061 31.9795 130.6 30.5755 130.248L28.9177 129.82C28.7133 129.77 28.5156 129.695 28.3291 129.598Z" fill="#E0E0E0"/>
<path d="M32.1953 150.605C32.4626 150.624 32.728 150.664 32.9891 150.725L35.1491 151.153C36.9635 151.527 39.4691 152.063 42.2231 152.676C44.9771 153.288 47.4827 153.852 49.2809 154.275L51.4409 154.817C51.7063 154.87 51.9665 154.946 52.2185 155.044C51.9487 155.033 51.6808 154.993 51.4193 154.925L49.2593 154.497C47.4449 154.123 44.9393 153.586 42.1853 152.974C39.4313 152.362 36.9041 151.76 35.1005 151.353L32.9405 150.811C32.6857 150.769 32.436 150.7 32.1953 150.605Z" fill="#E0E0E0"/>
<path d="M51.7383 154.784C51.8965 154.541 52.0773 154.315 52.2783 154.106L53.8173 152.329C55.1187 150.822 56.9007 148.741 58.8123 146.367C60.7239 143.993 62.3979 141.836 63.5967 140.253L65.0223 138.378C65.1829 138.14 65.3635 137.917 65.5623 137.711C65.4325 137.968 65.2808 138.212 65.1087 138.443C64.7955 138.909 64.3365 139.57 63.7533 140.378C62.5923 142.004 60.9399 144.172 59.0283 146.551C57.1167 148.93 55.3023 150.974 53.9631 152.448C53.2935 153.18 52.7427 153.77 52.3431 154.166C52.157 154.387 51.9549 154.593 51.7383 154.784Z" fill="#E0E0E0"/>
<path d="M251.175 258.794C251.175 258.876 199.157 258.935 135.005 258.935C70.8532 258.935 18.8242 258.876 18.8242 258.794C18.8242 258.713 70.8316 258.653 135.005 258.653C199.179 258.653 251.175 258.718 251.175 258.794Z" fill="#263238"/>
<path d="M226.044 35.5442H210.384C209.356 35.5712 208.381 36.0064 207.672 36.7542C206.963 37.5021 206.579 38.5016 206.604 39.5334V42.3843C206.629 43.4161 206.244 44.4155 205.536 45.1634C204.827 45.9113 203.852 46.3464 202.824 46.3734H172.287C171.255 46.3478 170.275 45.9132 169.562 45.1647C168.849 44.4161 168.46 43.4145 168.48 42.3789V39.5008C168.5 38.4703 168.115 37.4732 167.407 36.7263C166.699 35.9794 165.726 35.5429 164.7 35.5117H159.192H145.481C142.211 35.5117 139.074 36.815 136.76 39.1353C134.446 41.4555 133.145 44.6028 133.142 47.8856L133.104 246.35C133.104 249.631 134.403 252.777 136.713 255.097C139.024 257.418 142.159 258.722 145.427 258.724L226.071 258.772C227.69 258.774 229.294 258.455 230.79 257.834C232.286 257.213 233.646 256.302 234.791 255.154C235.937 254.005 236.846 252.641 237.465 251.14C238.085 249.638 238.405 248.029 238.405 246.404L238.442 47.9344C238.444 46.3021 238.125 44.6855 237.502 43.1778C236.879 41.67 235.965 40.3009 234.812 39.1492C233.66 37.9975 232.292 37.0861 230.787 36.4674C229.282 35.8487 227.67 35.5349 226.044 35.5442Z" fill="white"/>
<path d="M226.044 35.5442C226.044 35.5442 226.185 35.5442 226.466 35.5442C226.883 35.5435 227.3 35.5743 227.713 35.6364C229.353 35.8438 230.93 36.398 232.341 37.2624C233.386 37.8781 234.333 38.6492 235.149 39.5496C236.147 40.6301 236.942 41.8823 237.498 43.246C238.138 44.8416 238.453 46.5504 238.421 48.2704C238.421 50.0969 238.421 52.0644 238.421 54.1023C238.421 70.5899 238.448 94.4434 238.464 123.912C238.481 153.38 238.464 188.486 238.464 227.434V245.981C238.493 247.262 238.335 248.54 237.995 249.775C237.651 251.013 237.119 252.19 236.418 253.266C235.704 254.336 234.84 255.298 233.853 256.122C231.825 257.77 229.335 258.74 226.73 258.897C224.149 258.973 221.579 258.897 218.987 258.93H203.305H171.083H146.281C143.425 259.076 140.601 258.278 138.24 256.659C135.905 255.015 134.192 252.628 133.38 249.884C132.995 248.524 132.822 247.112 132.867 245.699V241.526C132.867 235.976 132.867 230.46 132.867 224.979C132.867 214.03 132.867 203.248 132.867 192.632C132.867 171.424 132.867 150.969 132.867 131.478C132.867 111.988 132.867 93.4732 132.867 76.14C132.867 67.468 132.867 59.1104 132.867 51.0671C132.867 50.059 132.867 49.0563 132.867 48.0644C132.867 47.5658 132.911 47.0617 132.938 46.5631C132.965 46.0644 133.062 45.5712 133.186 45.0888C133.631 43.1602 134.521 41.3633 135.783 39.8423C137.009 38.3792 138.552 37.2164 140.293 36.4424C142.035 35.6685 143.929 35.3038 145.833 35.3762H156.579H164.279C165.141 35.3301 165.994 35.568 166.709 36.0537C167.404 36.5444 167.931 37.2394 168.216 38.0428C168.453 38.8344 168.537 39.664 168.464 40.4873V41.7339C168.452 42.1281 168.465 42.5227 168.502 42.9154C168.617 43.6893 168.962 44.4106 169.49 44.9859C169.981 45.5638 170.64 45.9732 171.375 46.1566C171.737 46.2437 172.109 46.282 172.482 46.2704H178.071H194.325H201.491C202.058 46.2704 202.635 46.2704 203.17 46.2704C203.706 46.2031 204.22 46.0181 204.677 45.7284C205.115 45.4491 205.494 45.0848 205.791 44.6567C206.088 44.2285 206.296 43.7453 206.405 43.2352C206.493 42.7382 206.526 42.2328 206.502 41.7284C206.502 41.2298 206.502 40.7366 206.502 40.2488C206.48 39.7672 206.502 39.2847 206.567 38.8071C206.644 38.3427 206.802 37.8953 207.031 37.4846C207.467 36.7073 208.155 36.103 208.98 35.7719C209.772 35.5214 210.606 35.433 211.432 35.5117H219.429H224.343H226.023H224.343H219.429H211.432C210.644 35.5117 209.812 35.4304 209.024 35.7773C208.212 36.1043 207.538 36.7039 207.117 37.4737C206.899 37.8763 206.747 38.312 206.669 38.7637C206.611 39.2346 206.591 39.7096 206.61 40.1837C206.61 40.6715 206.61 41.1648 206.61 41.6634C206.631 42.1767 206.598 42.6908 206.513 43.1973C206.402 43.7255 206.187 44.2262 205.881 44.6701C205.575 45.114 205.184 45.4922 204.731 45.7826C204.253 46.078 203.717 46.2632 203.159 46.3246C202.587 46.3734 202.036 46.3246 201.464 46.3246H172.482C172.091 46.34 171.701 46.3017 171.321 46.2108C170.545 46.02 169.849 45.5873 169.334 44.975C168.803 44.3641 168.463 43.6102 168.356 42.807C168.322 42.4504 168.31 42.092 168.318 41.7339V40.5089C168.385 39.7111 168.303 38.9078 168.075 38.1404C167.807 37.3798 167.308 36.7223 166.65 36.2597C165.97 35.8015 165.161 35.5771 164.344 35.6201H145.898C144.03 35.5495 142.171 35.9083 140.463 36.6693C138.755 37.4302 137.243 38.573 136.043 40.0103C134.81 41.5006 133.942 43.2605 133.51 45.1485C133.386 45.62 133.348 46.1078 133.262 46.5902C133.175 47.0726 133.202 47.5658 133.197 48.0644V51.0671C133.197 59.1104 133.197 67.468 133.197 76.14C133.197 93.484 133.197 111.993 133.197 131.478V192.632C133.197 203.234 133.197 214.016 133.197 224.979V245.699C133.15 247.079 133.318 248.458 133.694 249.786C134.492 252.456 136.167 254.777 138.446 256.371C140.747 257.938 143.499 258.7 146.276 258.539H154.602H171.078H203.3H219.003C221.589 258.539 224.181 258.583 226.73 258.507C229.265 258.353 231.688 257.405 233.658 255.797C234.621 254.996 235.463 254.059 236.159 253.016C236.84 251.971 237.357 250.826 237.692 249.623C238.022 248.424 238.177 247.182 238.151 245.938C238.151 244.68 238.151 243.434 238.151 242.182C238.151 237.195 238.151 232.265 238.151 227.391C238.151 188.426 238.189 153.326 238.205 123.869C238.221 94.4108 238.259 70.5466 238.275 54.0589C238.275 51.9993 238.275 50.0536 238.275 48.227C238.311 46.521 238.004 44.8253 237.374 43.2406C236.826 41.8866 236.042 40.6419 235.057 39.5659C233.13 37.4351 230.52 36.0503 227.681 35.6526C227.269 35.5886 226.855 35.5506 226.439 35.5388C226.185 35.5605 226.044 35.5442 226.044 35.5442Z" fill="#263238"/>
<path d="M153.031 55.5876C153.031 55.6364 150.99 55.7014 148.479 55.7177C145.968 55.734 143.927 55.7177 143.927 55.6635C143.927 55.6093 145.963 55.5497 148.479 55.528C150.995 55.5063 153.031 55.5334 153.031 55.5876Z" fill="#263238"/>
<path d="M153.047 57.9236C153.047 57.9778 151.011 58.0374 148.5 58.0591C145.989 58.0807 143.948 58.0591 143.948 57.9994C143.948 57.9398 145.984 57.8856 148.495 57.8639C151.006 57.8422 153.047 57.8693 153.047 57.9236Z" fill="#263238"/>
<path d="M153.069 60.2595C153.069 60.3137 151.033 60.3733 148.517 60.395C146.001 60.4167 143.965 60.395 143.965 60.3354C143.965 60.2757 146.001 60.2215 148.517 60.1999C151.033 60.1782 153.069 60.2053 153.069 60.2595Z" fill="#263238"/>
<path d="M182.92 208.615H142.393V249.292H182.92V208.615Z" fill="#F5F5F5"/>
<path d="M178.135 231.89C174.836 227.266 167.832 224.101 162.14 224.952C157.529 225.64 153.446 227.792 151.211 232.388C151.061 232.688 150.985 233.02 150.99 233.356C150.996 233.691 151.081 234.02 151.24 234.316C151.399 234.611 151.627 234.863 151.904 235.051C152.181 235.239 152.499 235.358 152.831 235.396C160.514 236.317 168.281 236.291 175.959 235.32C177.141 235.169 178.551 234.838 178.632 233.369C178.639 232.833 178.464 232.311 178.135 231.89Z" fill="#F27507"/>
<g opacity="0.5">
<path opacity="0.5" d="M178.135 231.89C174.836 227.266 167.832 224.101 162.141 224.952C157.529 225.64 153.447 227.792 151.211 232.388" fill="white"/>
</g>
<path d="M159.916 231.656C159.889 231.656 159.651 231.445 159.338 231.011C158.92 230.438 158.622 229.785 158.463 229.093C158.328 228.404 158.27 227.702 158.29 227C158.266 226.711 158.29 226.42 158.361 226.139C158.45 226.415 158.494 226.704 158.49 226.995C158.527 227.677 158.608 228.356 158.733 229.028C158.894 229.688 159.152 230.32 159.5 230.903C159.67 231.135 159.81 231.388 159.916 231.656Z" fill="#F5F5F5"/>
<path d="M164.803 231.434C164.722 231.434 164.841 230.122 164.668 228.529C164.495 226.935 164.128 225.683 164.198 225.656C164.992 227.473 165.203 229.492 164.803 231.434Z" fill="#F5F5F5"/>
<path d="M169.857 230.68C169.776 230.648 170.159 229.775 170.251 228.626C170.343 227.477 170.132 226.55 170.213 226.528C170.485 227.199 170.594 227.926 170.532 228.647C170.47 229.369 170.239 230.065 169.857 230.68Z" fill="#F5F5F5"/>
<g opacity="0.3">
<path opacity="0.3" d="M163.906 225.168L163.95 225.25L163.906 225.168Z" fill="black"/>
</g>
<path d="M183.389 77.1211H142.393V138.806H183.389V77.1211Z" fill="#F5F5F5"/>
<path d="M183.389 143.456H142.393V205.141H183.389V143.456Z" fill="#F5F5F5"/>
<path d="M228.291 131.809H187.294V189.402H228.291V131.809Z" fill="#F5F5F5"/>
<path d="M227.956 193.45H186.959V249.287H227.956V193.45Z" fill="#F5F5F5"/>
<path d="M228.291 77.1211H187.294V128.069H228.291V77.1211Z" fill="#F5F5F5"/>
<path d="M169.334 95.5653V112.665C169.334 113.413 168.735 114.188 167.633 114.774C166.157 115.47 164.538 115.807 162.908 115.76H162.881C158.858 115.76 156.455 114.167 156.455 112.665V95.5328C156.455 93.8634 157.681 92.1236 158.912 90.4C159.738 89.251 159.938 87.5979 159.992 86.606C159.992 86.4922 159.992 86.3892 159.992 86.2917H159.879C159.643 86.3097 159.409 86.2331 159.229 86.0787C159.049 85.9244 158.937 85.7047 158.917 85.4678V84.747C158.935 84.5087 159.047 84.2872 159.227 84.1308C159.407 83.9744 159.641 83.8959 159.879 83.9123H165.921C166.101 83.9071 166.278 83.9514 166.434 84.0403C166.59 84.1291 166.719 84.2592 166.807 84.4164C166.857 84.5194 166.882 84.6325 166.882 84.747V85.4678C166.862 85.7042 166.749 85.923 166.57 86.0771C166.39 86.2311 166.157 86.3082 165.921 86.2917H165.781C165.781 86.3892 165.781 86.4922 165.781 86.606C165.819 87.5816 166.018 89.2347 166.861 90.4C168.092 92.1236 169.312 93.8634 169.318 95.5328L169.334 95.5653Z" fill="#FAFAFA"/>
<path d="M169.333 95.5656V95.3921C169.319 95.2212 169.295 95.0511 169.263 94.8826C169.118 94.2361 168.878 93.6149 168.55 93.0398C168.023 92.125 167.441 91.2434 166.806 90.4003C166.063 89.1683 165.688 87.7479 165.726 86.3082V86.2106H165.78C165.993 86.243 166.21 86.1949 166.39 86.0758C166.569 85.9566 166.698 85.7749 166.752 85.5656C166.752 85.3488 166.752 85.0833 166.752 84.8394C166.765 84.7275 166.75 84.6141 166.707 84.5099C166.665 84.4056 166.596 84.3138 166.509 84.2432C166.325 84.0944 166.092 84.0191 165.856 84.0318H163.42H159.943C159.807 84.0198 159.671 84.0367 159.542 84.0816C159.414 84.1264 159.296 84.1981 159.197 84.292C159.108 84.3864 159.048 84.5051 159.025 84.6334C159.016 84.7814 159.016 84.9298 159.025 85.0779C159.025 85.2296 159.025 85.4085 159.025 85.5331C159.042 85.6654 159.1 85.7888 159.192 85.8854C159.293 85.9872 159.415 86.0649 159.549 86.1127C159.684 86.1606 159.828 86.1774 159.97 86.1619H160.094V86.2974C160.088 86.997 160.012 87.6942 159.867 88.3786C159.727 89.0971 159.45 89.7816 159.052 90.3949C158.143 91.5543 157.393 92.8302 156.821 94.1889C156.7 94.5394 156.62 94.9033 156.584 95.2729C156.584 95.636 156.584 96.0371 156.584 96.4219V98.7742C156.584 100.364 156.584 101.976 156.584 103.609C156.584 106.481 156.584 109.289 156.584 111.999C156.567 112.325 156.582 112.652 156.627 112.975C156.705 113.278 156.86 113.556 157.075 113.782C157.515 114.251 158.049 114.62 158.641 114.866C159.809 115.336 161.051 115.591 162.308 115.62C163.505 115.682 164.705 115.574 165.872 115.3C166.973 115.081 167.985 114.538 168.777 113.739C168.947 113.543 169.075 113.314 169.155 113.067C169.216 112.815 169.238 112.555 169.22 112.297V110.725C169.22 109.695 169.22 108.709 169.22 107.766C169.22 104.01 169.252 100.969 169.263 98.8447C169.263 97.804 169.263 96.991 169.263 96.4165C169.263 95.842 169.29 95.571 169.29 95.571C169.318 95.8519 169.329 96.1343 169.322 96.4165C169.322 96.991 169.322 97.804 169.349 98.8447C169.349 100.969 169.349 104.01 169.393 107.766C169.393 108.709 169.393 109.695 169.393 110.725V112.297C169.413 112.577 169.391 112.858 169.328 113.132C169.24 113.411 169.097 113.669 168.907 113.891C168.086 114.727 167.031 115.294 165.883 115.517C164.694 115.804 163.47 115.919 162.248 115.858C160.953 115.833 159.672 115.572 158.468 115.088C157.839 114.835 157.272 114.449 156.805 113.956C156.56 113.694 156.384 113.376 156.292 113.029C156.24 112.685 156.222 112.336 156.238 111.988C156.238 109.278 156.238 106.471 156.238 103.598C156.238 101.961 156.238 100.35 156.238 98.7634V96.4111C156.238 96.0154 156.238 95.6469 156.238 95.2404C156.274 94.8485 156.357 94.4626 156.487 94.0913C157.068 92.7098 157.833 91.4135 158.76 90.2377C159.456 89.0424 159.803 87.6755 159.764 86.2919L159.894 86.422C159.717 86.4371 159.539 86.4124 159.373 86.3495C159.206 86.2867 159.056 86.1874 158.933 86.0589C158.807 85.9242 158.726 85.7538 158.701 85.5711C158.701 85.3814 158.701 85.2459 158.701 85.0833C158.69 84.9226 158.69 84.7615 158.701 84.6009C158.733 84.4228 158.817 84.2584 158.944 84.1294C159.064 84.0112 159.208 83.9201 159.367 83.8622C159.525 83.8043 159.694 83.7808 159.862 83.7933H163.339H165.775C166.059 83.7849 166.337 83.8792 166.558 84.0589C166.665 84.1508 166.75 84.2669 166.804 84.3979C166.859 84.5288 166.882 84.6708 166.871 84.8123C166.871 85.067 166.871 85.2946 166.871 85.5656C166.811 85.8204 166.66 86.0437 166.445 86.192C166.23 86.3403 165.968 86.403 165.71 86.3678L165.802 86.2757C165.75 87.6826 166.102 89.0748 166.817 90.2865C167.444 91.1425 168.017 92.0367 168.534 92.964C168.857 93.5505 169.083 94.1856 169.204 94.8447C169.231 95.015 169.248 95.1871 169.252 95.3596C169.292 95.4224 169.32 95.4923 169.333 95.5656Z" fill="#263238"/>
<path d="M165.462 86.27C163.666 86.4594 161.857 86.4594 160.062 86.27C161.857 86.0806 163.666 86.0806 165.462 86.27Z" fill="#263238"/>
<path d="M168.793 97.8473C168.504 97.7055 168.184 97.6386 167.862 97.6528C167.54 97.667 167.227 97.7618 166.952 97.9286C166.4 98.2655 165.804 98.5227 165.181 98.6928C164.42 98.7635 163.658 98.5723 163.021 98.1508C162.384 97.734 161.714 97.3714 161.017 97.0668C160.325 96.8307 159.581 96.7944 158.87 96.9621C158.159 97.1298 157.509 97.4947 156.994 98.0153V112.649C156.994 112.649 157.799 115.148 163.447 114.758C169.096 114.367 168.647 111.863 168.647 111.863L168.793 97.8473Z" fill="#F27507"/>
<path d="M212.441 214.225V231.185C212.441 231.933 211.847 232.697 210.746 233.282C209.281 233.976 207.673 234.313 206.053 234.263C202.052 234.263 199.665 232.675 199.665 231.185V214.247C199.665 214.247 199.665 214.247 199.665 214.209C199.665 212.551 200.885 210.822 202.106 209.114C202.932 207.971 203.126 206.323 203.186 205.358C203.186 205.244 203.186 205.141 203.186 205.049H203.04C202.805 205.066 202.573 204.989 202.394 204.834C202.215 204.68 202.104 204.461 202.084 204.225V203.51C202.102 203.274 202.213 203.054 202.392 202.899C202.571 202.745 202.804 202.668 203.04 202.686H209.045C209.223 202.68 209.399 202.724 209.555 202.812C209.71 202.9 209.838 203.029 209.925 203.185C209.972 203.287 209.996 203.398 209.995 203.51V204.225C209.977 204.461 209.867 204.68 209.689 204.834C209.511 204.988 209.28 205.066 209.045 205.049H208.931C208.931 205.141 208.931 205.244 208.931 205.358C208.969 206.323 209.164 207.971 209.984 209.114C211.21 210.822 212.42 212.551 212.431 214.209C212.447 214.204 212.441 214.215 212.441 214.225Z" fill="#FAFAFA"/>
<path d="M212.442 214.226C212.445 214.168 212.445 214.11 212.442 214.052C212.43 213.881 212.408 213.711 212.377 213.543C212.232 212.902 211.994 212.286 211.67 211.716C211.147 210.805 210.566 209.929 209.931 209.093C209.191 207.869 208.816 206.459 208.851 205.028V204.925H208.942C209.154 204.957 209.37 204.908 209.547 204.789C209.725 204.67 209.852 204.488 209.904 204.28C209.904 204.068 209.904 203.803 209.904 203.559C209.914 203.448 209.897 203.336 209.855 203.234C209.812 203.131 209.746 203.04 209.661 202.968C209.477 202.822 209.247 202.747 209.013 202.757H206.593H203.137C203.003 202.745 202.867 202.762 202.74 202.807C202.612 202.852 202.495 202.923 202.398 203.017C202.307 203.111 202.247 203.23 202.225 203.358C202.216 203.505 202.216 203.651 202.225 203.797C202.225 203.944 202.225 204.123 202.225 204.247C202.242 204.38 202.301 204.503 202.392 204.6C202.492 204.7 202.612 204.776 202.745 204.823C202.878 204.87 203.019 204.886 203.159 204.871H203.289V205.006C203.282 205.7 203.206 206.392 203.062 207.071C202.923 207.784 202.648 208.463 202.252 209.071C201.347 210.23 200.603 211.506 200.038 212.865C199.915 213.215 199.837 213.579 199.806 213.949C199.806 214.307 199.806 214.708 199.806 215.087C199.806 215.857 199.806 216.637 199.806 217.429V222.22C199.806 225.076 199.806 227.868 199.806 230.561C199.789 230.884 199.804 231.207 199.849 231.526C199.929 231.829 200.083 232.106 200.297 232.334C200.734 232.801 201.264 233.17 201.852 233.418C203.006 233.873 204.231 234.119 205.47 234.144C206.66 234.206 207.853 234.099 209.013 233.824C210.107 233.611 211.112 233.07 211.896 232.274C212.066 232.08 212.194 231.853 212.274 231.607C212.333 231.357 212.353 231.1 212.334 230.843C212.334 230.301 212.334 229.792 212.334 229.282C212.334 228.258 212.334 227.282 212.334 226.345C212.334 222.61 212.366 219.586 212.377 217.478C212.377 216.442 212.377 215.635 212.404 215.071C212.431 214.507 212.404 214.231 212.404 214.231C212.436 214.51 212.447 214.791 212.436 215.071C212.436 215.613 212.436 216.442 212.436 217.478C212.436 219.586 212.463 222.61 212.485 226.345C212.485 227.282 212.485 228.258 212.485 229.282C212.485 229.792 212.485 230.312 212.485 230.843C212.506 231.122 212.482 231.402 212.415 231.672C212.328 231.949 212.186 232.205 211.999 232.426C211.185 233.26 210.138 233.826 208.996 234.052C207.815 234.339 206.598 234.454 205.384 234.393C204.103 234.367 202.837 234.108 201.647 233.629C201.051 233.372 200.514 232.993 200.07 232.518C199.828 232.257 199.654 231.941 199.563 231.597C199.511 231.256 199.492 230.911 199.509 230.567V215.076C199.509 214.686 199.509 214.318 199.509 213.917C199.545 213.525 199.628 213.139 199.757 212.768C200.334 211.397 201.093 210.112 202.014 208.946C202.702 207.758 203.048 206.402 203.013 205.028L203.137 205.152C202.963 205.167 202.787 205.142 202.622 205.081C202.458 205.019 202.309 204.921 202.187 204.795C202.061 204.661 201.981 204.49 201.96 204.307C201.96 204.123 201.96 203.987 201.96 203.825C201.95 203.664 201.95 203.503 201.96 203.342C201.994 203.166 202.079 203.004 202.203 202.876C202.323 202.759 202.467 202.668 202.624 202.61C202.781 202.552 202.949 202.528 203.116 202.54H206.572H208.991C209.274 202.53 209.55 202.625 209.769 202.806C209.876 202.897 209.96 203.012 210.015 203.142C210.069 203.272 210.092 203.413 210.082 203.554C210.082 203.808 210.082 204.036 210.082 204.302C210.016 204.552 209.864 204.77 209.652 204.917C209.44 205.064 209.183 205.13 208.926 205.104L209.018 205.012C208.968 206.407 209.316 207.787 210.022 208.99C210.65 209.838 211.22 210.727 211.729 211.651C212.051 212.234 212.277 212.866 212.398 213.521C212.427 213.689 212.442 213.86 212.442 214.03C212.458 214.166 212.452 214.226 212.442 214.226Z" fill="#263238"/>
<path d="M208.597 204.985C206.82 205.173 205.028 205.173 203.251 204.985C205.028 204.797 206.82 204.797 208.597 204.985Z" fill="#263238"/>
<path d="M211.908 216.491C211.621 216.348 211.302 216.28 210.983 216.294C210.663 216.307 210.351 216.401 210.077 216.567C209.53 216.902 208.939 217.159 208.322 217.331C207.562 217.399 206.801 217.208 206.162 216.789C205.53 216.371 204.863 216.008 204.169 215.705C203.482 215.472 202.744 215.437 202.038 215.604C201.333 215.772 200.688 216.136 200.179 216.653V231.212C200.179 231.212 200.973 233.699 206.583 233.309C212.194 232.919 211.756 230.431 211.756 230.431L211.908 216.491Z" fill="#F27507"/>
<g opacity="0.5">
<path opacity="0.5" d="M211.908 216.491C211.621 216.348 211.302 216.28 210.983 216.294C210.663 216.307 210.351 216.401 210.077 216.567C209.53 216.902 208.939 217.159 208.322 217.331C207.562 217.399 206.801 217.208 206.162 216.789C205.53 216.371 204.863 216.008 204.169 215.705C203.482 215.472 202.744 215.437 202.038 215.604C201.333 215.772 200.688 216.136 200.179 216.653V231.212C200.179 231.212 200.973 233.699 206.583 233.309C212.194 232.919 211.756 230.431 211.756 230.431L211.908 216.491Z" fill="white"/>
</g>
<path d="M221.233 152.595C221.048 152.519 220.847 152.492 220.649 152.514C220.451 152.537 220.262 152.609 220.099 152.725C220.018 152.779 219.931 152.844 219.85 152.909C217.109 154.944 213.777 156.016 210.368 155.961C203.731 155.961 198.234 152.226 197.251 147.348V146.427C197.26 146.335 197.249 146.242 197.219 146.154C197.19 146.066 197.142 145.986 197.08 145.917C197.018 145.849 196.942 145.794 196.858 145.757C196.773 145.719 196.682 145.7 196.59 145.7C196.498 145.7 196.406 145.719 196.322 145.757C196.238 145.794 196.162 145.849 196.1 145.917C196.037 145.986 195.99 146.066 195.96 146.154C195.931 146.242 195.92 146.335 195.928 146.427V149.007C195.933 149.068 195.945 149.128 195.966 149.186C195.51 150.198 195.269 151.294 195.259 152.405C195.259 158.037 201.199 162.611 208.548 162.611C214.71 162.611 219.888 159.397 221.4 155.023C221.419 155.004 221.43 154.979 221.433 154.953C221.607 154.604 221.705 154.221 221.719 153.831C221.759 153.6 221.735 153.362 221.649 153.144C221.563 152.926 221.419 152.736 221.233 152.595Z" fill="#F27507"/>
<g opacity="0.3">
<path opacity="0.3" d="M196.755 149.863C196.755 149.863 203.013 164.313 219.975 154.199C219.975 154.199 215.606 158.752 209.909 159.858C204.747 160.85 197.1 157.928 196.755 149.863Z" fill="black"/>
</g>
<path d="M221.698 153.321C221.595 153.571 221.19 153.641 220.796 153.473C220.402 153.305 220.164 152.964 220.256 152.714C220.348 152.465 220.764 152.4 221.158 152.568C221.552 152.736 221.806 153.072 221.698 153.321Z" fill="#263238"/>
<path d="M228.021 60.162C227.976 60.1699 227.931 60.1699 227.886 60.162H227.503H226.082L221.314 60.2053H221.276V60.1674C221.239 59.9126 221.201 59.6254 221.158 59.3761C220.828 57.0563 220.537 54.9859 220.342 53.6309H220.369H218.749C218.711 53.6356 218.673 53.6356 218.636 53.6309H218.749H219.089H220.358H220.385V53.658C220.585 55.0075 220.893 57.078 221.239 59.3923C221.276 59.6633 221.314 59.9343 221.352 60.1836L221.309 60.1457H226.077H228.016L228.021 60.162Z" fill="#263238"/>
<path d="M221.109 58.8065C221.109 58.8065 221.109 58.8065 221.147 58.8065H221.244H221.628H223.064L228.01 58.7577L227.967 58.7957C228.108 57.9556 228.264 57.0504 228.421 56.1182C228.502 55.6358 228.583 55.1588 228.664 54.709L228.707 54.7632H222.875H220.558C220.531 54.7632 220.521 54.7632 220.521 54.7632H220.683H221.147H222.875L228.707 54.7144H228.761V54.7686L228.523 56.1724C228.361 57.11 228.205 58.0152 228.064 58.8824V58.9149H228.027H223.08H221.125L221.109 58.8065Z" fill="#263238"/>
<path d="M223.021 62.0159C223.021 62.0159 223.021 61.9563 222.983 61.8533C222.942 61.7127 222.854 61.5904 222.735 61.5064C222.649 61.4454 222.549 61.4061 222.445 61.392C222.34 61.3778 222.234 61.3892 222.135 61.4251C222.015 61.4706 221.911 61.5517 221.838 61.6577C221.765 61.7638 221.726 61.8897 221.726 62.0186C221.726 62.1476 221.765 62.2735 221.838 62.3795C221.911 62.4855 222.015 62.5667 222.135 62.6121C222.234 62.6502 222.341 62.6622 222.446 62.6471C222.551 62.6319 222.65 62.59 222.735 62.5254C222.851 62.4397 222.937 62.3178 222.978 62.1785C223.01 62.0755 223.01 62.0159 223.015 62.0159C223.029 62.071 223.029 62.1288 223.015 62.1839C222.982 62.3398 222.896 62.4794 222.772 62.5796C222.68 62.6521 222.57 62.7004 222.455 62.7202C222.339 62.7401 222.22 62.7309 222.108 62.6934C221.968 62.6456 221.847 62.5551 221.761 62.4346C221.675 62.3141 221.629 62.1695 221.629 62.0213C221.629 61.8731 221.675 61.7286 221.761 61.6081C221.847 61.4876 221.968 61.3971 222.108 61.3493C222.22 61.3096 222.34 61.2987 222.457 61.3177C222.574 61.3366 222.684 61.3847 222.778 61.4577C222.902 61.555 222.988 61.6932 223.021 61.8479C223.036 61.9028 223.036 61.961 223.021 62.0159Z" fill="#263238"/>
<path d="M227.34 61.9882C227.34 61.9882 227.34 61.9286 227.303 61.831C227.263 61.6898 227.175 61.5671 227.054 61.4841C226.969 61.4218 226.869 61.3817 226.765 61.3675C226.66 61.3533 226.554 61.3655 226.455 61.4028C226.365 61.4313 226.284 61.4795 226.215 61.5437C226.147 61.6079 226.093 61.6867 226.059 61.7742C226.024 61.8617 226.01 61.9558 226.016 62.0497C226.022 62.1435 226.049 62.2348 226.095 62.3169C226.141 62.399 226.204 62.4699 226.281 62.5243C226.357 62.5787 226.445 62.6154 226.537 62.6317C226.63 62.6479 226.724 62.6434 226.815 62.6183C226.905 62.5933 226.989 62.5483 227.06 62.4868C227.177 62.3981 227.264 62.275 227.308 62.1345C227.335 62.0315 227.335 61.9719 227.34 61.9719C227.354 62.027 227.354 62.0848 227.34 62.1399C227.309 62.2955 227.225 62.4354 227.103 62.5356C227 62.6172 226.876 62.6683 226.745 62.6832C226.614 62.6981 226.482 62.6762 226.363 62.6199C226.245 62.5636 226.144 62.4752 226.072 62.3646C226 62.2539 225.961 62.1255 225.958 61.9936C225.958 61.846 226.003 61.7018 226.087 61.5807C226.171 61.4595 226.29 61.3671 226.428 61.3161C226.539 61.2764 226.658 61.2655 226.774 61.2845C226.89 61.3034 226.999 61.3516 227.092 61.4245C227.219 61.5194 227.306 61.6587 227.335 61.8147C227.353 61.8708 227.355 61.931 227.34 61.9882Z" fill="#263238"/>
<path d="M228.739 55.8667C229.771 55.6431 230.427 54.6222 230.204 53.5864C229.981 52.5506 228.964 51.8921 227.932 52.1157C226.9 52.3393 226.244 53.3602 226.467 54.396C226.69 55.4318 227.707 56.0903 228.739 55.8667Z" fill="#F27507"/>
<path d="M228.571 53.2627V54.7207H228.231V53.5337H227.939V53.2627H228.571Z" fill="white"/>
<path d="M213.582 230.67H157.762C153.622 230.67 150.267 234.038 150.267 238.193V241.803C150.267 245.957 153.622 249.326 157.762 249.326H213.582C217.721 249.326 221.077 245.957 221.077 241.803V238.193C221.077 234.038 217.721 230.67 213.582 230.67Z" fill="#F27507"/>
<g opacity="0.3">
<path opacity="0.3" d="M213.582 230.67H157.762C153.622 230.67 150.267 234.038 150.267 238.193V241.803C150.267 245.957 153.622 249.326 157.762 249.326H213.582C217.721 249.326 221.077 245.957 221.077 241.803V238.193C221.077 234.038 217.721 230.67 213.582 230.67Z" fill="black"/>
</g>
<path d="M210.833 230.67H155.013C150.873 230.67 147.518 234.038 147.518 238.193V241.803C147.518 245.957 150.873 249.326 155.013 249.326H210.833C214.972 249.326 218.328 245.957 218.328 241.803V238.193C218.328 234.038 214.972 230.67 210.833 230.67Z" fill="#F27507"/>
<path d="M180.793 238.973C180.793 239.927 180.102 240.507 178.962 240.507H177.882V241.845H177.256V237.434H178.973C180.102 237.434 180.793 238.014 180.793 238.973ZM180.166 238.973C180.166 238.339 179.745 237.981 178.941 237.981H177.861V239.959H178.941C179.745 239.959 180.166 239.602 180.166 238.973Z" fill="white"/>
<path d="M184.297 240.74H181.98L181.5 241.824H180.852L182.844 237.412H183.465L185.458 241.824H184.799L184.297 240.74ZM184.075 240.236L183.13 238.068L182.18 240.236H184.075Z" fill="white"/>
<path d="M187.51 240.317V241.845H186.889V240.306L185.145 237.434H185.814L187.218 239.759L188.633 237.434H189.254L187.51 240.317Z" fill="white"/>
<path d="M164.258 164.448C164.418 163.409 164.372 162.348 164.122 161.327C163.872 160.305 163.423 159.344 162.801 158.497C162.179 157.651 161.396 156.937 160.498 156.395C159.6 155.854 158.604 155.496 157.567 155.342C157.453 155.297 157.328 155.288 157.208 155.315C157.088 155.342 156.979 155.404 156.895 155.494C156.811 155.584 156.755 155.697 156.736 155.819C156.716 155.94 156.733 156.065 156.784 156.177C156.973 158.203 157.797 160.118 159.138 161.645C160.479 163.172 162.268 164.233 164.247 164.675" fill="#455A64"/>
<path d="M153.129 179.164C155.132 183.31 157.989 186.101 161.58 186.237C162.292 186.237 162.832 185.792 163.513 185.749C163.911 185.84 164.294 185.986 164.652 186.183C164.842 186.263 165.045 186.309 165.252 186.318C168.934 186.117 172.077 183.516 174.194 179.164C177.137 173.066 176.23 166.519 172.164 164.53C171.628 164.262 171.07 164.044 170.495 163.879C169.838 163.695 169.157 163.615 168.475 163.641C166.889 163.742 165.329 164.095 163.853 164.687L163.653 164.763C160.348 163.294 157.713 163.288 155.148 164.53C151.082 166.519 150.18 173.066 153.129 179.164Z" fill="#F27507"/>
<path d="M153.198 172.99C153.007 172.608 152.893 172.192 152.863 171.765C152.742 170.734 152.866 169.689 153.225 168.715C153.583 167.741 154.166 166.866 154.926 166.161C155.222 165.854 155.579 165.612 155.974 165.451C156.001 165.489 155.596 165.755 155.061 166.302C154.372 167.018 153.839 167.869 153.494 168.802C153.149 169.734 153 170.729 153.058 171.722C153.112 172.508 153.247 172.974 153.198 172.99Z" fill="#FAFAFA"/>
<path d="M153.943 175.884C153.868 175.884 153.738 175.613 153.652 175.244C153.565 174.876 153.56 174.556 153.652 174.534C153.744 174.513 153.857 174.805 153.943 175.179C154.03 175.553 154.019 175.868 153.943 175.884Z" fill="#FAFAFA"/>
<path d="M172.665 154.47C172.665 154.524 171.898 154.817 170.753 155.505C170.086 155.911 169.449 156.366 168.847 156.865C168.128 157.49 167.463 158.176 166.86 158.914C166.252 159.66 165.71 160.458 165.24 161.299C164.87 161.988 164.553 162.703 164.289 163.44C163.841 164.708 163.712 165.532 163.658 165.521C163.654 165.324 163.676 165.127 163.722 164.936C163.752 164.707 163.797 164.481 163.857 164.258C163.923 163.962 164.005 163.669 164.1 163.38C164.338 162.619 164.644 161.881 165.013 161.174C165.922 159.44 167.171 157.907 168.685 156.67C169.298 156.171 169.952 155.725 170.64 155.337C170.904 155.185 171.176 155.047 171.455 154.925C171.661 154.823 171.871 154.732 172.087 154.654C172.272 154.57 172.466 154.508 172.665 154.47Z" fill="#263238"/>
<path d="M222.675 97.7493C219.376 93.1315 212.372 89.9662 206.68 90.8171C202.069 91.5055 197.986 93.6572 195.751 98.2534C195.602 98.5535 195.528 98.8851 195.534 99.2202C195.539 99.5553 195.625 99.8841 195.784 100.179C195.943 100.474 196.17 100.726 196.446 100.914C196.722 101.103 197.039 101.222 197.371 101.261C205.054 102.182 212.821 102.157 220.499 101.186C221.687 101.034 223.091 100.703 223.172 99.2344C223.179 98.6971 223.004 98.1733 222.675 97.7493Z" fill="#F27507"/>
<path d="M204.455 97.522C204.428 97.522 204.19 97.3106 203.877 96.877C203.46 96.3031 203.162 95.6505 203.002 94.9583C202.867 94.2696 202.809 93.5679 202.829 92.8662C202.809 92.5753 202.833 92.2828 202.9 91.999C202.991 92.275 203.035 92.5646 203.029 92.8554C203.068 93.5394 203.151 94.2202 203.278 94.8933C203.433 95.5551 203.692 96.188 204.044 96.7686C204.213 97.0011 204.351 97.2543 204.455 97.522Z" fill="#263238"/>
<path d="M209.348 97.2943C209.261 97.2943 209.38 95.9827 209.213 94.3892C209.045 92.7957 208.673 91.5437 208.743 91.5166C209.18 92.4032 209.433 93.3692 209.488 94.3567C209.636 95.3355 209.588 96.3342 209.348 97.2943Z" fill="#263238"/>
<path d="M214.38 96.5462C214.304 96.5137 214.682 95.6357 214.774 94.4866C214.866 93.3376 214.655 92.4108 214.736 92.3945C215.008 93.0656 215.117 93.7917 215.055 94.5134C214.993 95.235 214.762 95.9317 214.38 96.5462Z" fill="#263238"/>
<g opacity="0.3">
<path opacity="0.3" d="M208.44 91.0557L208.484 91.1375L208.44 91.0557Z" fill="black"/>
</g>
<g opacity="0.3">
<path opacity="0.3" d="M208.489 91.1152C207.985 92.0427 207.791 93.1084 207.937 94.1547C208.083 95.2011 208.56 96.1726 209.299 96.9255C209.777 94.9559 209.487 92.8775 208.489 91.1152Z" fill="black"/>
</g>
<g opacity="0.3">
<path opacity="0.3" d="M203.791 96.7086C203.268 95.7551 202.955 94.6996 202.873 93.6138C202.879 93.1344 202.81 92.6571 202.668 92.1992C202.1 92.9083 201.821 93.8067 201.885 94.7141C201.962 95.6675 202.408 96.5527 203.127 97.1802C203.235 97.281 203.364 97.3552 203.505 97.397C203.576 97.4144 203.651 97.4097 203.719 97.3836C203.788 97.3575 203.847 97.3111 203.889 97.2506C203.986 97.0826 203.889 96.8767 203.791 96.7086Z" fill="black"/>
</g>
<g opacity="0.3">
<path opacity="0.3" d="M214.839 92.8232C214.82 92.6338 214.765 92.4497 214.677 92.2812C214.631 92.1993 214.564 92.1322 214.481 92.0879C214.399 92.0437 214.306 92.0243 214.212 92.0319C213.959 92.0753 213.834 92.3625 213.759 92.6118C213.334 93.6813 213.205 94.8462 213.386 95.9831C213.446 96.2378 213.613 96.5251 213.878 96.5251C214.142 96.5251 214.212 96.3083 214.304 96.1294C214.822 95.1105 215.009 93.9543 214.839 92.8232Z" fill="black"/>
</g>
<path d="M151.999 127.527V128.036H151.627V127.532C151.228 127.522 150.841 127.39 150.52 127.153L150.719 126.698C150.985 126.893 151.299 127.011 151.627 127.039V126.134C151.124 126.009 150.584 125.847 150.584 125.213C150.584 124.752 150.919 124.345 151.627 124.28V123.738H151.999V124.242C152.323 124.258 152.638 124.353 152.917 124.519L152.728 124.979C152.505 124.848 152.257 124.765 151.999 124.736V125.652C152.501 125.771 153.047 125.933 153.047 126.562C153.047 127.055 152.707 127.451 151.999 127.527ZM151.627 125.581V124.774C151.308 124.822 151.168 124.99 151.168 125.185C151.168 125.381 151.362 125.505 151.627 125.581ZM152.469 126.633C152.469 126.41 152.269 126.302 151.999 126.226V127.028C152.329 126.979 152.469 126.828 152.469 126.633Z" fill="#263238"/>
<path d="M155.752 124.312V127.489H155.164V124.806H154.494V124.312H155.752Z" fill="#263238"/>
<path d="M157.103 127.143C157.095 127.28 157.06 127.415 157 127.538L156.768 128.178H156.401L156.584 127.479C156.519 127.452 156.463 127.405 156.425 127.345C156.388 127.284 156.37 127.214 156.374 127.143C156.368 127.091 156.372 127.038 156.388 126.989C156.403 126.939 156.429 126.893 156.463 126.854C156.498 126.815 156.54 126.783 156.588 126.762C156.635 126.741 156.686 126.729 156.738 126.729C156.79 126.729 156.842 126.741 156.889 126.762C156.936 126.783 156.979 126.815 157.013 126.854C157.048 126.893 157.073 126.939 157.089 126.989C157.104 127.038 157.109 127.091 157.103 127.143Z" fill="#263238"/>
<path d="M159.786 126.513C159.786 127.055 159.387 127.537 158.534 127.537C158.109 127.544 157.693 127.415 157.346 127.169L157.594 126.708C157.862 126.915 158.191 127.026 158.528 127.022C158.944 127.022 159.198 126.838 159.198 126.535C159.198 126.231 158.998 126.041 158.345 126.041H157.583L157.745 124.312H159.603V124.806H158.22L158.15 125.543H158.453C159.414 125.543 159.786 125.949 159.786 126.513Z" fill="#263238"/>
<path d="M160.127 125.901C160.127 124.855 160.699 124.275 161.45 124.275C162.201 124.275 162.773 124.866 162.773 125.901C162.773 126.937 162.206 127.527 161.45 127.527C160.694 127.527 160.127 126.947 160.127 125.901ZM162.184 125.901C162.184 125.132 161.882 124.779 161.45 124.779C161.018 124.779 160.721 125.132 160.721 125.901C160.721 126.671 161.018 127.023 161.45 127.023C161.882 127.023 162.184 126.666 162.184 125.901Z" fill="#263238"/>
<path d="M175.862 131.537C175.862 131.619 170.057 131.678 162.902 131.678C155.747 131.678 149.942 131.619 149.942 131.537C149.942 131.456 155.747 131.396 162.902 131.396C170.057 131.396 175.862 131.462 175.862 131.537Z" fill="#263238"/>
<path d="M162.001 133.658C162.001 133.739 159.301 133.798 155.98 133.798C152.659 133.798 149.953 133.739 149.953 133.658C149.953 133.576 152.653 133.517 155.98 133.517C159.306 133.517 162.001 133.582 162.001 133.658Z" fill="#263238"/>
<path d="M197.452 114.53V115.039H197.101V114.535C196.712 114.518 196.337 114.388 196.021 114.161L196.22 113.7C196.483 113.901 196.798 114.021 197.127 114.047V113.137C196.625 113.017 196.085 112.849 196.085 112.221C196.085 111.76 196.42 111.353 197.127 111.283V110.773H197.5V111.277C197.825 111.289 198.141 111.384 198.418 111.554L198.229 112.009C198.006 111.877 197.757 111.794 197.5 111.765V112.681C198.002 112.806 198.548 112.963 198.548 113.597C198.499 114.058 198.181 114.459 197.452 114.53ZM197.079 112.589V111.782C196.755 111.83 196.62 111.993 196.62 112.193C196.62 112.394 196.814 112.513 197.101 112.589H197.079ZM197.921 113.635C197.921 113.413 197.722 113.31 197.452 113.234V114.036C197.781 113.987 197.921 113.819 197.921 113.635Z" fill="#263238"/>
<path d="M202.403 113.999V114.497H200.065V114.102L201.323 112.904C201.631 112.606 201.685 112.422 201.685 112.243C201.685 111.956 201.485 111.787 201.096 111.787C200.956 111.78 200.816 111.806 200.687 111.864C200.558 111.921 200.445 112.008 200.357 112.118L199.946 111.798C200.09 111.62 200.273 111.478 200.481 111.384C200.69 111.29 200.917 111.246 201.145 111.256C201.836 111.256 202.279 111.603 202.279 112.167C202.273 112.365 202.221 112.558 202.127 112.732C202.033 112.906 201.901 113.056 201.739 113.17L200.891 113.983L202.403 113.999Z" fill="#263238"/>
<path d="M203.51 114.151C203.502 114.286 203.467 114.419 203.407 114.541L203.175 115.181H202.808L202.992 114.487C202.926 114.46 202.869 114.413 202.831 114.353C202.792 114.293 202.773 114.222 202.776 114.151C202.776 114.053 202.814 113.959 202.883 113.89C202.952 113.821 203.045 113.782 203.143 113.782C203.24 113.782 203.334 113.821 203.403 113.89C203.471 113.959 203.51 114.053 203.51 114.151Z" fill="#263238"/>
<path d="M206.231 113.999V114.498H203.893V114.102L205.151 112.904C205.459 112.606 205.513 112.422 205.513 112.243C205.513 111.956 205.313 111.788 204.925 111.788C204.784 111.78 204.644 111.806 204.515 111.864C204.387 111.921 204.273 112.009 204.185 112.118L203.774 111.799C203.919 111.62 204.103 111.477 204.312 111.383C204.521 111.289 204.75 111.246 204.979 111.257C205.664 111.257 206.107 111.603 206.107 112.167C206.101 112.365 206.049 112.558 205.955 112.732C205.861 112.907 205.729 113.056 205.567 113.17L204.719 113.983L206.231 113.999Z" fill="#263238"/>
<path d="M208.872 113.521C208.872 114.063 208.473 114.54 207.62 114.54C207.194 114.549 206.778 114.42 206.432 114.172L206.68 113.716C206.947 113.921 207.274 114.029 207.609 114.025C208.03 114.025 208.278 113.841 208.278 113.543C208.278 113.245 208.084 113.044 207.431 113.044H206.664L206.831 111.315H208.689V111.814H207.328L207.258 112.546H207.56C208.5 112.546 208.872 112.958 208.872 113.521Z" fill="#263238"/>
<path d="M221.314 118.546C221.314 118.622 215.509 118.687 208.354 118.687C201.199 118.687 195.394 118.622 195.394 118.546C195.394 118.47 201.204 118.405 208.354 118.405C215.503 118.405 221.314 118.47 221.314 118.546Z" fill="#263238"/>
<path d="M207.463 120.665C207.463 120.741 204.763 120.806 201.437 120.806C198.111 120.806 195.416 120.741 195.416 120.665C195.416 120.589 198.116 120.524 201.437 120.524C204.758 120.524 207.463 120.589 207.463 120.665Z" fill="#263238"/>
<path d="M150.963 193.493V194.003H150.59V193.493C150.192 193.482 149.806 193.35 149.483 193.114L149.689 192.659C149.951 192.857 150.263 192.975 150.59 193V192.095C150.088 191.97 149.554 191.808 149.554 191.179C149.554 190.713 149.888 190.312 150.59 190.241V189.727H150.963V190.241C151.287 190.257 151.602 190.352 151.881 190.518L151.697 190.979C151.472 190.848 151.222 190.765 150.963 190.735V191.651C151.465 191.775 152.011 191.932 152.011 192.561C152.011 193.016 151.676 193.418 150.963 193.493ZM150.59 191.548V190.74C150.272 190.794 150.137 190.957 150.137 191.157C150.137 191.358 150.331 191.466 150.59 191.542V191.548ZM151.433 192.599C151.433 192.377 151.233 192.274 150.963 192.193V193C151.292 192.951 151.433 192.789 151.433 192.594V192.599Z" fill="#263238"/>
<path d="M153.619 191.868C153.619 190.822 154.192 190.242 154.942 190.242C155.693 190.242 156.265 190.828 156.265 191.868C156.265 192.909 155.698 193.494 154.942 193.494C154.186 193.494 153.619 192.909 153.619 191.868ZM155.677 191.868C155.677 191.104 155.374 190.746 154.942 190.746C154.51 190.746 154.213 191.104 154.213 191.868C154.213 192.632 154.51 192.99 154.942 192.99C155.374 192.99 155.677 192.632 155.677 191.868Z" fill="#263238"/>
<path d="M157.335 193.109C157.327 193.245 157.292 193.378 157.233 193.5L157 194.139H156.639L156.817 193.445C156.752 193.417 156.697 193.37 156.66 193.31C156.622 193.25 156.604 193.18 156.606 193.109C156.6 193.058 156.605 193.005 156.62 192.955C156.636 192.906 156.661 192.86 156.696 192.821C156.73 192.781 156.773 192.75 156.82 192.729C156.867 192.707 156.919 192.696 156.971 192.696C157.023 192.696 157.074 192.707 157.121 192.729C157.169 192.75 157.211 192.781 157.246 192.821C157.28 192.86 157.306 192.906 157.321 192.955C157.337 193.005 157.342 193.058 157.335 193.109Z" fill="#263238"/>
<path d="M160.019 192.475C160.019 193.017 159.619 193.499 158.766 193.499C158.341 193.508 157.924 193.379 157.578 193.131L157.827 192.67C158.092 192.876 158.419 192.987 158.755 192.984C159.176 192.984 159.425 192.8 159.425 192.497C159.425 192.193 159.23 192.003 158.577 192.003H157.81L157.978 190.274H159.841V190.784H158.48L158.41 191.521H158.712C159.646 191.505 160.019 191.911 160.019 192.475Z" fill="#263238"/>
<path d="M160.381 191.868C160.381 190.822 160.953 190.242 161.704 190.242C162.454 190.242 163.027 190.828 163.027 191.868C163.027 192.909 162.46 193.494 161.704 193.494C160.948 193.494 160.381 192.909 160.381 191.868ZM162.438 191.868C162.438 191.104 162.136 190.746 161.704 190.746C161.272 190.746 160.975 191.104 160.975 191.868C160.975 192.632 161.272 192.99 161.704 192.99C162.136 192.99 162.417 192.632 162.417 191.868H162.438Z" fill="#263238"/>
<path d="M174.831 197.504C174.831 197.58 169.021 197.645 161.871 197.645C154.722 197.645 148.911 197.58 148.911 197.504C148.911 197.428 154.716 197.363 161.871 197.363C169.026 197.363 174.831 197.423 174.831 197.504Z" fill="#263238"/>
<path d="M160.975 199.624C160.975 199.7 158.275 199.765 154.954 199.765C151.633 199.765 148.933 199.7 148.933 199.624C148.933 199.548 151.633 199.483 154.954 199.483C158.275 199.483 160.975 199.543 160.975 199.624Z" fill="#263238"/>
<path d="M195.346 176.291V176.8H194.979V176.296C194.578 176.286 194.19 176.153 193.866 175.917L194.071 175.461C194.335 175.66 194.65 175.779 194.979 175.803V174.898C194.476 174.773 193.936 174.611 193.936 173.982C193.936 173.516 194.271 173.115 194.979 173.044V172.529H195.346V173.033C195.67 173.049 195.985 173.144 196.264 173.31L196.08 173.77C195.855 173.639 195.605 173.556 195.346 173.527V174.443C195.848 174.567 196.393 174.724 196.393 175.353C196.393 175.819 196.059 176.22 195.346 176.291ZM194.979 174.345V173.537C194.655 173.592 194.52 173.754 194.52 173.955C194.52 174.155 194.714 174.269 194.979 174.345ZM195.816 175.396C195.816 175.174 195.616 175.071 195.346 174.99V175.798C195.675 175.743 195.816 175.608 195.816 175.396Z" fill="#263238"/>
<path d="M199.098 173.077V176.253H198.509V173.57H197.84V173.077H199.098Z" fill="#263238"/>
<path d="M200.453 175.912C200.445 176.047 200.41 176.18 200.351 176.302L200.119 176.941H199.751L199.93 176.248C199.865 176.219 199.81 176.172 199.773 176.112C199.735 176.052 199.716 175.982 199.719 175.912C199.719 175.814 199.758 175.72 199.827 175.651C199.895 175.582 199.989 175.543 200.086 175.543C200.184 175.543 200.277 175.582 200.346 175.651C200.415 175.72 200.453 175.814 200.453 175.912Z" fill="#263238"/>
<path d="M200.777 174.665C200.777 173.619 201.35 173.039 202.1 173.039C202.851 173.039 203.423 173.624 203.423 174.665C203.423 175.706 202.883 176.291 202.1 176.291C201.317 176.291 200.777 175.711 200.777 174.665ZM202.835 174.665C202.835 173.901 202.532 173.543 202.1 173.543C201.668 173.543 201.371 173.901 201.371 174.665C201.371 175.429 201.668 175.787 202.1 175.787C202.532 175.787 202.835 175.435 202.835 174.665Z" fill="#263238"/>
<path d="M203.823 174.665C203.823 173.619 204.396 173.039 205.146 173.039C205.897 173.039 206.469 173.624 206.469 174.665C206.469 175.706 205.902 176.291 205.146 176.291C204.39 176.291 203.823 175.711 203.823 174.665ZM205.881 174.665C205.881 173.901 205.578 173.543 205.146 173.543C204.714 173.543 204.417 173.901 204.417 174.665C204.417 175.429 204.714 175.787 205.146 175.787C205.578 175.787 205.881 175.435 205.881 174.665Z" fill="#263238"/>
<path d="M219.24 180.307C219.24 180.382 213.43 180.447 206.28 180.447C199.131 180.447 193.32 180.382 193.32 180.307C193.32 180.231 199.125 180.16 206.28 180.16C213.435 180.16 219.24 180.225 219.24 180.307Z" fill="#263238"/>
<path d="M205.356 182.427C205.356 182.503 202.656 182.568 199.335 182.568C196.014 182.568 193.314 182.503 193.314 182.427C193.314 182.351 196.014 182.28 199.335 182.28C202.656 182.28 205.356 182.345 205.356 182.427Z" fill="#263238"/>
<path d="M199.671 58.8235C199.671 58.8994 193.412 58.9645 185.695 58.9645C177.979 58.9645 171.715 58.8994 171.715 58.8235C171.715 58.7477 177.973 58.6826 185.695 58.6826C193.417 58.6826 199.671 58.7422 199.671 58.8235Z" fill="#F27507"/>
<path d="M17.6044 227.125C16.769 227.159 15.9691 227.474 15.3328 228.018C14.6965 228.563 14.2604 229.305 14.0944 230.128C13.7435 231.45 13.4676 232.791 13.2682 234.144C13.2682 234.144 10.0984 237.006 13.2682 237.77C16.438 238.534 17.5882 234.247 17.5882 234.247L18.0742 227.104L17.6044 227.125Z" fill="#B78876"/>
<path d="M49.3457 172.356C49.3457 172.356 59.2493 138.975 60.2591 137.538C61.9223 135.159 77.9549 128.004 77.9549 128.004L82.2749 119.202L108.902 114.904L115.507 123.435L134.066 137.126L132.77 184.345L132.079 217.315L135.595 258.475L51.3005 258.317L55.1129 249.645L59.1143 174.784L49.3457 172.356Z" fill="#F27507"/>
<path d="M60.7669 167.852C60.7424 167.764 60.7314 167.672 60.7345 167.581C60.7345 167.369 60.7345 167.115 60.6913 166.806C60.6913 166.134 60.6319 165.18 60.6103 163.96C60.5671 161.554 60.5671 158.231 60.6697 154.562C60.7723 150.893 60.9667 147.576 61.1503 145.175C61.2367 143.977 61.3231 143.007 61.3933 142.34L61.4743 141.57C61.4825 141.48 61.4988 141.392 61.5229 141.305C61.5382 141.394 61.5382 141.486 61.5229 141.576C61.5229 141.782 61.5229 142.036 61.4905 142.345C61.4527 143.061 61.3987 144.02 61.3339 145.191C61.2043 147.592 61.0423 150.903 60.9397 154.573C60.8371 158.242 60.8047 161.554 60.7993 163.96C60.7993 165.131 60.7993 166.09 60.7993 166.806C60.7993 167.115 60.7993 167.348 60.7993 167.581C60.8014 167.672 60.7905 167.763 60.7669 167.852Z" fill="#263238"/>
<g opacity="0.3">
<path opacity="0.3" d="M79.8606 158.264C79.8401 157.89 79.9488 157.521 80.1684 157.218C80.5381 156.763 81.045 156.441 81.6127 156.301C82.1805 156.16 82.7784 156.208 83.3166 156.438C84.726 157.115 85.428 158.741 85.7142 160.286C86.022 161.977 85.9788 163.722 86.2974 165.413C86.616 167.104 87.3774 168.828 88.8624 169.7C90.693 170.784 93.096 170.297 95.0184 171.207C97.8804 172.557 98.5445 176.291 98.6903 179.467C98.9603 185.478 98.6904 191.494 98.442 197.505L96.7896 235.889L95.2829 255.147L87.5286 258.453L77.2686 190.784L79.8606 158.264Z" fill="black"/>
</g>
<path d="M82.0807 152.779C82.0225 152.829 81.9544 152.866 81.8809 152.888C81.67 152.963 81.4437 152.986 81.2221 152.953C80.8164 152.881 80.438 152.699 80.1277 152.426C79.8175 152.154 79.5872 151.802 79.4617 151.408C79.2951 150.868 79.2418 150.3 79.3051 149.739C79.3767 149.11 79.4812 148.486 79.6183 147.869C79.8775 146.557 80.1583 145.126 80.4607 143.625C81.0655 140.617 81.6271 137.896 82.0483 135.929L82.5883 133.603C82.6406 133.316 82.7146 133.034 82.8097 132.758C82.7987 133.05 82.7607 133.34 82.6963 133.625C82.5829 134.227 82.4425 135.018 82.2697 135.972C81.8971 137.945 81.3625 140.671 80.7577 143.679C80.4499 145.18 80.1583 146.611 79.8937 147.918C79.6291 149.224 79.3537 150.405 79.6723 151.348C79.7813 151.717 79.9856 152.049 80.2646 152.312C80.5435 152.575 80.887 152.758 81.2599 152.844C81.535 152.884 81.8153 152.862 82.0807 152.779Z" fill="#263238"/>
<path d="M84.8124 140.221C84.8124 140.249 84.591 140.249 84.2238 140.362C83.7086 140.533 83.2557 140.854 82.9224 141.284C82.6718 141.589 82.5035 141.953 82.4335 142.342C82.3635 142.732 82.3943 143.132 82.5228 143.506C82.664 143.97 82.9409 144.38 83.3174 144.684C83.694 144.988 84.1529 145.171 84.6345 145.209C85.1161 145.248 85.5981 145.14 86.0179 144.9C86.4377 144.66 86.776 144.299 86.9886 143.864C87.1746 143.516 87.2683 143.125 87.2607 142.731C87.2532 142.336 87.1446 141.95 86.9454 141.609C86.6861 141.13 86.289 140.741 85.806 140.492C85.4604 140.319 85.266 140.286 85.266 140.259C85.266 140.232 85.32 140.259 85.4226 140.259C85.5753 140.28 85.7243 140.322 85.8654 140.384C86.3977 140.609 86.8429 141 87.1344 141.501C87.3409 141.846 87.4682 142.233 87.507 142.633C87.5494 143.098 87.4556 143.565 87.237 143.977C87.0054 144.465 86.6321 144.87 86.1663 145.139C85.7005 145.409 85.1642 145.53 84.6283 145.487C84.0923 145.444 83.5819 145.239 83.1645 144.899C82.7472 144.559 82.4424 144.1 82.2906 143.582C82.1388 143.14 82.12 142.663 82.2366 142.211C82.3614 141.738 82.61 141.307 82.9565 140.963C83.3031 140.619 83.7351 140.374 84.2076 140.254C84.3573 140.214 84.5118 140.196 84.6666 140.2C84.7161 140.198 84.7655 140.206 84.8124 140.221Z" fill="#263238"/>
<path d="M93.8798 174.73L45.1934 165.885L22.4648 170.893L73.322 180.08L93.8798 174.73Z" fill="#F27507"/>
<g opacity="0.6">
<path opacity="0.6" d="M93.8798 174.73L45.1934 165.885L22.4648 170.893L73.322 180.08L93.8798 174.73Z" fill="black"/>
</g>
<path d="M62.748 196.041C63.4068 187.033 65.8692 164.155 67.716 155.315C68.256 152.67 68.904 149.966 70.416 147.727C71.928 145.489 74.5956 143.852 77.2524 144.264C79.6284 144.632 81.54 146.567 82.5012 148.779C83.4404 151.016 83.8596 153.439 83.7271 155.863C83.2681 166.789 82.3284 179.028 82.3392 189.158" fill="#455A64"/>
<path d="M79.235 174.589C78.6441 174.812 78.0421 175.003 77.4314 175.163C74.5252 176.065 71.7439 177.33 69.1532 178.93C68.6309 179.288 68.0902 179.617 67.5332 179.917C67.5332 179.917 67.6574 179.781 67.9166 179.575C68.1758 179.369 68.5592 179.093 69.0452 178.762C70.3212 177.912 71.6629 177.165 73.0574 176.529C74.4525 175.893 75.8974 175.372 77.3774 174.974C77.9444 174.822 78.4088 174.714 78.7274 174.654C78.8931 174.61 79.0637 174.588 79.235 174.589Z" fill="#263238"/>
<path d="M80.0448 164.194C80.0448 164.237 79.3158 164.399 78.1494 164.763C75.1048 165.702 72.2609 167.202 69.7632 169.185C68.8074 169.944 68.2512 170.464 68.2188 170.432C68.3196 170.283 68.4374 170.147 68.5698 170.025C68.8074 169.776 69.1691 169.435 69.6497 169.034C70.8718 167.985 72.2067 167.076 73.6296 166.324C75.0528 165.573 76.5541 164.983 78.1062 164.562C78.5737 164.431 79.0477 164.324 79.5264 164.242C79.6957 164.199 79.8705 164.183 80.0448 164.194Z" fill="#263238"/>
<path d="M78.9537 155.825C78.9537 155.874 78.3759 155.901 77.4633 156.069C76.2768 156.29 75.1264 156.675 74.0451 157.213C72.9665 157.756 71.9673 158.446 71.0751 159.261C70.3893 159.89 69.9951 160.345 69.9951 160.307C69.9951 160.269 70.0599 160.172 70.2165 159.961C70.4386 159.661 70.6822 159.379 70.9455 159.115C72.6931 157.349 74.9694 156.207 77.4255 155.863C77.7941 155.812 78.1658 155.786 78.5379 155.787C78.8079 155.793 78.9483 155.803 78.9537 155.825Z" fill="#263238"/>
<path d="M72.9002 181.884C72.8978 181.9 72.8978 181.917 72.9002 181.933V213.206C72.9002 214.578 71.8202 215.992 69.7736 217.065C67.727 218.139 64.8056 218.87 61.1336 218.876H61.085C53.714 218.876 49.3076 215.954 49.3076 213.206V181.933C49.3089 181.917 49.3089 181.9 49.3076 181.884C49.3076 181.884 49.3076 181.846 49.3076 181.825C49.3076 178.768 51.5594 175.575 53.8166 172.421C55.3286 170.318 55.6904 167.283 55.7606 165.505C55.7606 165.288 55.7606 165.099 55.7606 164.925H55.5554C55.3408 164.944 55.1247 164.919 54.9198 164.853C54.7148 164.786 54.525 164.68 54.3616 164.539C54.1982 164.398 54.0644 164.226 53.9681 164.033C53.8717 163.839 53.8147 163.629 53.8004 163.413V162.09C53.8133 161.874 53.8693 161.662 53.9651 161.467C54.0608 161.273 54.1944 161.099 54.358 160.958C54.5215 160.816 54.7117 160.708 54.9174 160.641C55.1231 160.574 55.34 160.549 55.5554 160.567H66.6254C66.9544 160.557 67.2799 160.638 67.5658 160.801C67.8518 160.965 68.087 161.205 68.2454 161.494C68.3339 161.68 68.38 161.884 68.3804 162.09V163.413C68.3662 163.629 68.309 163.84 68.2123 164.034C68.1156 164.228 67.9813 164.4 67.8173 164.541C67.6533 164.682 67.4629 164.788 67.2573 164.854C67.0517 164.92 66.835 164.944 66.62 164.925H66.4202C66.4202 165.099 66.4202 165.288 66.4202 165.505C66.4904 167.283 66.8522 170.318 68.3696 172.421C70.6214 175.575 72.8624 178.768 72.8786 181.825C72.9002 181.846 72.9002 181.873 72.9002 181.884Z" fill="#FAFAFA"/>
<path d="M72.9005 181.885C72.9077 181.778 72.9077 181.672 72.9005 181.565C72.8807 181.252 72.8429 180.941 72.7871 180.633C72.5278 179.444 72.0928 178.3 71.4965 177.24C70.5379 175.557 69.4737 173.937 68.3105 172.389C67.6229 171.368 67.132 170.226 66.8633 169.023C66.5431 167.683 66.3764 166.31 66.3665 164.931V164.834H66.4637C66.873 164.861 67.2812 164.765 67.6355 164.557C67.8136 164.454 67.9668 164.312 68.0844 164.143C68.202 163.973 68.281 163.78 68.3159 163.576C68.3159 163.159 68.3159 162.687 68.3159 162.237C68.3346 162.02 68.3006 161.802 68.2169 161.601C68.1332 161.4 68.0023 161.222 67.8353 161.083C67.4824 160.796 67.0363 160.649 66.5825 160.671H62.1005H55.7231C55.4613 160.648 55.1975 160.681 54.9497 160.769C54.7019 160.857 54.4758 160.997 54.2867 161.18C54.1063 161.369 53.986 161.606 53.9411 161.863C53.9271 162.14 53.9271 162.416 53.9411 162.693C53.9411 162.969 53.9411 163.283 53.9411 163.538C53.9792 163.802 54.0959 164.047 54.2759 164.243C54.4688 164.44 54.7033 164.591 54.9623 164.685C55.2212 164.779 55.4978 164.813 55.7717 164.785H55.9013V164.92C55.8924 166.196 55.7549 167.467 55.4909 168.714C55.2289 170.012 54.7231 171.248 54.0005 172.356C53.2391 173.44 52.4561 174.524 51.7325 175.674C50.9836 176.815 50.3676 178.039 49.8965 179.321C49.6674 179.972 49.5204 180.65 49.4591 181.337C49.4213 182.015 49.4591 182.741 49.4591 183.446V196.616C49.4591 201.879 49.4591 207.023 49.4591 211.988C49.4298 212.594 49.4587 213.202 49.5455 213.803C49.6973 214.375 49.9886 214.901 50.3933 215.332C51.2074 216.2 52.1957 216.886 53.2931 217.342C54.3704 217.795 55.4927 218.131 56.6411 218.345C57.7657 218.559 58.9047 218.687 60.0485 218.73C62.251 218.843 64.4584 218.64 66.6041 218.128C67.629 217.878 68.6232 217.514 69.5687 217.044C70.4841 216.606 71.3029 215.989 71.9771 215.229C72.2921 214.856 72.5323 214.425 72.6845 213.96C72.7978 213.491 72.8379 213.006 72.8033 212.524V209.641C72.8033 207.76 72.8033 205.95 72.8033 204.221C72.8033 197.326 72.8357 191.755 72.8465 187.874C72.8573 183.993 72.8951 181.879 72.8951 181.879C72.9114 182.011 72.9114 182.144 72.8951 182.275C72.8951 182.546 72.8951 182.931 72.8951 183.43C72.8951 184.454 72.8951 185.95 72.8951 187.874C72.8951 191.744 72.8951 197.326 72.9383 204.221C72.9383 205.944 72.9383 207.754 72.9383 209.641V213.261C72.9313 213.52 72.8914 213.777 72.8195 214.025C72.6604 214.521 72.4053 214.979 72.0689 215.375C71.3783 216.164 70.535 216.804 69.5903 217.256C68.6298 217.726 67.6213 218.089 66.5825 218.34C64.4407 218.855 62.2378 219.066 60.0377 218.968C58.8812 218.928 57.7295 218.799 56.5925 218.584C55.4241 218.365 54.2819 218.024 53.1851 217.565C52.0484 217.105 51.0242 216.404 50.1827 215.511C49.7472 215.054 49.4333 214.495 49.2701 213.885C49.1737 213.263 49.1412 212.632 49.1729 212.004V183.457C49.1729 182.741 49.1729 182.047 49.1729 181.327C49.2383 180.617 49.3906 179.918 49.6265 179.245C50.1048 177.941 50.7318 176.697 51.4949 175.538C52.2185 174.384 53.0123 173.294 53.7737 172.216C54.472 171.132 54.9611 169.925 55.2155 168.66C55.4758 167.434 55.6151 166.185 55.6313 164.931L55.7555 165.056C55.447 165.083 55.1363 165.042 54.8459 164.934C54.5554 164.826 54.2925 164.655 54.0761 164.432C53.8604 164.201 53.7226 163.907 53.6819 163.592C53.6819 163.273 53.6819 163.007 53.6819 162.714C53.666 162.424 53.666 162.132 53.6819 161.842C53.7379 161.537 53.8826 161.256 54.0977 161.034C54.311 160.827 54.5657 160.668 54.845 160.567C55.1243 160.466 55.4217 160.426 55.7177 160.449H62.0951H66.5501C67.052 160.43 67.5436 160.596 67.9325 160.915C68.1207 161.074 68.2681 161.276 68.3621 161.505C68.456 161.733 68.4939 161.98 68.4725 162.227C68.4725 162.693 68.4725 163.121 68.4725 163.592C68.4347 163.824 68.3463 164.044 68.2138 164.237C68.0812 164.43 67.9077 164.591 67.7057 164.709C67.32 164.933 66.8758 165.035 66.4313 165.002L66.5177 164.915C66.5663 167.771 67.1171 170.416 68.4023 172.291C69.5578 173.847 70.6112 175.476 71.5559 177.169C72.1491 178.241 72.5719 179.398 72.8087 180.6C72.8607 180.921 72.8914 181.245 72.9005 181.57C72.9192 181.674 72.9192 181.781 72.9005 181.885Z" fill="#263238"/>
<path d="M65.8159 164.849C64.1785 164.992 62.5341 165.039 60.8911 164.99C59.2464 165.039 57.6002 164.992 55.9609 164.849C57.6004 164.71 59.2464 164.663 60.8911 164.708C62.5341 164.663 64.1783 164.71 65.8159 164.849Z" fill="#263238"/>
<path d="M71.9174 186.063C70.9238 185.413 69.6116 185.7 68.5424 186.209C67.4732 186.719 66.4634 187.429 65.3024 187.613C63.9362 187.835 62.5592 187.288 61.3442 186.6C60.1292 185.911 58.979 185.06 57.6722 184.589C56.4048 184.159 55.0426 184.094 53.7405 184.403C52.4384 184.711 51.2487 185.38 50.3066 186.334V213.185C50.3066 213.185 51.7754 217.764 62.1218 217.049C72.4682 216.334 71.6528 211.743 71.6528 211.743L71.9174 186.063Z" fill="#F27507"/>
<path d="M44.507 167.787C44.66 166.796 44.6158 165.784 44.3769 164.811C44.138 163.837 43.7091 162.92 43.115 162.114C42.521 161.307 41.7736 160.627 40.916 160.112C40.0584 159.598 39.1077 159.259 38.1188 159.115C37.9375 159.068 37.7455 159.089 37.5788 159.175C37.3574 159.327 37.352 159.646 37.3736 159.912C37.5545 161.849 38.3415 163.679 39.6219 165.139C40.9024 166.599 42.6105 167.616 44.5016 168.042" fill="#455A64"/>
<path d="M33.8856 181.83C35.7972 185.787 38.5458 188.453 41.9532 188.583C42.6336 188.583 43.1466 188.155 43.7946 188.117C44.1713 188.205 44.5346 188.344 44.8746 188.529C45.0453 188.605 45.2282 188.649 45.4146 188.659C48.9354 188.47 51.9324 185.987 53.952 181.83C56.7654 176.014 55.896 169.765 52.0134 167.863C51.5038 167.608 50.9725 167.399 50.4258 167.239C49.7976 167.07 49.1482 166.993 48.498 167.012C46.9969 167.119 45.5214 167.459 44.124 168.02L43.935 168.09C40.776 166.692 38.2596 166.681 35.835 167.868C31.9308 169.765 31.0668 176.014 33.8856 181.83Z" fill="#F27507"/>
<path d="M33.9505 175.939C33.7662 175.574 33.6561 175.176 33.6265 174.768C33.5116 173.784 33.6303 172.786 33.9728 171.856C34.3154 170.927 34.8721 170.091 35.5975 169.419C35.8837 169.128 36.2252 168.897 36.6019 168.741C36.6019 168.785 36.2455 169.034 35.7325 169.56C35.0769 170.248 34.568 171.063 34.2367 171.955C33.908 172.849 33.7682 173.801 33.8263 174.752C33.8695 175.478 34.0207 175.923 33.9505 175.939Z" fill="#FAFAFA"/>
<path d="M34.6683 178.703C34.5927 178.703 34.4631 178.448 34.3821 178.091C34.3011 177.733 34.2957 177.435 34.3821 177.419C34.4685 177.402 34.5819 177.673 34.6683 178.031C34.7547 178.389 34.7439 178.687 34.6683 178.703Z" fill="#FAFAFA"/>
<path d="M52.5318 158.265C52.5318 158.313 51.8082 158.595 50.712 159.257C50.0743 159.642 49.4676 160.077 48.8976 160.557C48.2042 161.151 47.5628 161.804 46.9806 162.509C46.4101 163.223 45.9007 163.984 45.4578 164.785C45.1029 165.441 44.7996 166.124 44.5506 166.828C44.124 168.032 44.0106 168.823 43.9404 168.812C43.9406 168.63 43.9605 168.448 43.9998 168.27C44.0263 168.052 44.0696 167.836 44.1294 167.625C44.1917 167.339 44.2693 167.057 44.3616 166.779C44.5888 166.054 44.8798 165.35 45.231 164.677C46.0941 163.018 47.2869 161.556 48.7356 160.378C49.3237 159.897 49.9546 159.471 50.6202 159.105C50.8956 158.937 51.1602 158.823 51.3978 158.709C51.5936 158.611 51.7956 158.526 52.0026 158.454C52.1709 158.37 52.3486 158.307 52.5318 158.265Z" fill="#263238"/>
<path d="M22.4639 170.893L16.3457 248.355L73.3697 262.192C73.3697 262.192 93.2633 255.423 93.5333 254.962C93.8033 254.501 93.8789 174.746 93.8789 174.746L73.3211 180.096L22.4639 170.893Z" fill="#F27507"/>
<g opacity="0.4">
<path opacity="0.4" d="M22.4639 170.893L16.3457 248.355L73.3697 262.192C73.3697 262.192 93.2633 255.423 93.5333 254.962C93.8033 254.501 93.8789 174.746 93.8789 174.746L73.3211 180.096L22.4639 170.893Z" fill="black"/>
</g>
<path d="M111.904 80.6601L108.724 125.868C108.474 129.426 106.889 132.755 104.29 135.187C101.69 137.618 98.2691 138.969 94.7161 138.968C92.7925 138.973 90.8886 138.58 89.1224 137.815C87.3563 137.05 85.7656 135.929 84.4492 134.521C83.1327 133.113 82.1184 131.449 81.4694 129.631C80.8204 127.814 80.5504 125.882 80.6761 123.955C80.9569 119.652 81.2161 116.123 81.2161 116.123C81.2161 116.123 70.3135 114.421 70.1785 103.478C70.1029 97.1586 71.1883 82.8173 72.1171 71.8309C72.422 68.2425 74.0599 64.9002 76.7057 62.4675C79.3516 60.0347 82.812 58.6893 86.4001 58.6983H92.9827C95.6748 58.857 98.3078 59.5557 100.726 60.753C103.145 61.9503 105.299 63.622 107.063 65.6694C108.827 67.7167 110.164 70.0981 110.996 72.6728C111.827 75.2476 112.136 77.9635 111.904 80.6601Z" fill="#B78876"/>
<path d="M81.2383 116.123C81.2383 116.123 88.1125 116.53 95.435 111.912C95.435 111.912 91.925 119.874 81.0439 118.888L81.2383 116.123Z" fill="#AA6550"/>
<path d="M74.1856 83.1159C74.38 83.3219 75.5572 82.4438 77.2366 82.4493C78.916 82.4547 80.1364 83.2948 80.32 83.0888C80.4064 82.9967 80.212 82.6335 79.6774 82.2379C78.9517 81.7365 78.0906 81.4699 77.2096 81.4737C76.3378 81.4748 75.4881 81.7496 74.7796 82.2596C74.2666 82.6606 74.0938 83.0292 74.1856 83.1159Z" fill="#263238"/>
<path d="M92.3408 85.0508C92.3391 85.4576 92.4945 85.8492 92.7745 86.1433C93.0544 86.4374 93.4371 86.6112 93.842 86.628C94.0411 86.645 94.2416 86.6218 94.4316 86.5597C94.6217 86.4976 94.7974 86.398 94.9484 86.2666C95.0994 86.1353 95.2226 85.9749 95.3109 85.7949C95.3991 85.6149 95.4505 85.4191 95.462 85.2188C95.4665 84.8112 95.312 84.4181 95.0314 84.1234C94.7509 83.8286 94.3667 83.6557 93.9608 83.6416C93.7616 83.6238 93.5608 83.6465 93.3705 83.7083C93.1801 83.7701 93.0041 83.8697 92.8529 84.0012C92.7018 84.1327 92.5785 84.2934 92.4905 84.4737C92.4026 84.6541 92.3516 84.8503 92.3408 85.0508Z" fill="#263238"/>
<path d="M75.6973 85.0508C75.6942 85.458 75.8492 85.8504 76.1294 86.1448C76.4097 86.4392 76.7931 86.6126 77.1985 86.6281C77.3978 86.6458 77.5986 86.6231 77.7889 86.5613C77.9792 86.4995 78.1552 86.3999 78.3064 86.2684C78.4576 86.1369 78.5808 85.9762 78.6688 85.7959C78.7568 85.6156 78.8077 85.4193 78.8185 85.2188C78.8244 84.8118 78.6711 84.4186 78.3914 84.1237C78.1118 83.8288 77.7281 83.6558 77.3227 83.6416C77.1229 83.6223 76.9212 83.6439 76.7299 83.705C76.5386 83.7661 76.3617 83.8656 76.2097 83.9973C76.0578 84.129 75.9341 84.2903 75.846 84.4714C75.7579 84.6524 75.7073 84.8496 75.6973 85.0508Z" fill="#263238"/>
<path d="M90.4884 83.1213C90.6827 83.3219 91.8653 82.4438 93.5393 82.4493C95.2133 82.4547 96.4391 83.2948 96.6227 83.0888C96.7091 82.9967 96.5147 82.6335 95.9801 82.2379C95.2544 81.7365 94.3933 81.4699 93.5123 81.4737C92.6405 81.4748 91.7909 81.7496 91.0823 82.2596C90.5693 82.6606 90.3966 83.0292 90.4884 83.1213Z" fill="#263238"/>
<path d="M84.4076 95.5877C84.4076 95.4955 83.3762 95.3167 81.7076 95.0999C81.281 95.0511 80.876 94.9698 80.8058 94.6771C80.7669 94.2337 80.8649 93.789 81.0866 93.4034L82.3556 90.1514C84.1106 85.4956 85.385 81.6691 85.196 81.5986C85.007 81.5282 83.4302 85.2463 81.6752 89.9021C81.2252 91.0331 80.8202 92.1225 80.4602 93.1703C80.195 93.6898 80.1167 94.2853 80.2388 94.856C80.3015 95.0077 80.3978 95.1432 80.5203 95.2521C80.6429 95.361 80.7885 95.4405 80.9462 95.4847C81.1821 95.5494 81.4252 95.584 81.6698 95.5877C83.3492 95.6798 84.4022 95.6852 84.4076 95.5877Z" fill="#263238"/>
<path d="M89.3377 96.7521C89.0677 96.7521 89.0623 98.5624 87.5071 99.8578C85.9519 101.153 84.0133 100.942 83.9971 101.207C83.9971 101.321 84.4291 101.56 85.2499 101.587C86.315 101.6 87.351 101.238 88.1767 100.562C88.9673 99.9097 89.4762 98.9757 89.5969 97.9554C89.6671 97.1966 89.4619 96.7413 89.3377 96.7521Z" fill="#263238"/>
<path d="M90.0565 77.6528C90.2239 78.1081 91.8925 77.8913 93.8365 78.1298C95.7805 78.3683 97.395 78.9048 97.6542 78.4983C97.773 78.3032 97.4922 77.8696 96.855 77.4143C96.0031 76.8641 95.0334 76.5242 94.0254 76.4225C93.0199 76.2998 91.9996 76.4206 91.0501 76.7748C90.3481 77.0783 89.9863 77.436 90.0565 77.6528Z" fill="#263238"/>
<path d="M74.4178 78.3027C74.7148 78.6875 75.8704 78.3027 77.2582 78.2702C78.646 78.2377 79.8178 78.5304 80.0932 78.1293C80.2066 77.9342 80.023 77.5493 79.51 77.1916C78.8209 76.7564 78.0182 76.5374 77.2044 76.5625C76.3906 76.5876 75.6028 76.8557 74.9416 77.3325C74.4502 77.7228 74.2882 78.1184 74.4178 78.3027Z" fill="#263238"/>
<path d="M108.227 88.8884C108.416 88.8071 115.722 86.6662 115.485 94.1458C115.247 101.625 107.811 99.8423 107.806 99.6309C107.8 99.4195 108.227 88.8884 108.227 88.8884Z" fill="#B78876"/>
<path d="M110.16 96.8497C110.193 96.8497 110.29 96.9473 110.506 97.0557C110.809 97.1972 111.156 97.2147 111.472 97.1045C112.272 96.8389 112.974 95.6086 113.049 94.259C113.092 93.6189 112.989 92.9775 112.747 92.3836C112.684 92.1473 112.566 91.9296 112.401 91.7493C112.237 91.569 112.031 91.4314 111.802 91.3484C111.653 91.3038 111.494 91.313 111.352 91.3745C111.21 91.4359 111.094 91.5457 111.024 91.6845C110.916 91.8904 110.959 92.0422 110.922 92.053C110.884 92.0639 110.765 91.9229 110.835 91.614C110.885 91.4308 110.993 91.2689 111.143 91.1533C111.353 91.0045 111.613 90.9441 111.867 90.9853C112.171 91.0568 112.452 91.2047 112.683 91.4152C112.915 91.6257 113.089 91.8918 113.19 92.1885C113.484 92.8483 113.616 93.5697 113.573 94.2915C113.476 95.7982 112.66 97.1804 111.575 97.4622C111.373 97.5135 111.161 97.5188 110.957 97.4775C110.752 97.4362 110.559 97.3495 110.392 97.2237C110.16 97.0178 110.16 96.866 110.16 96.8497Z" fill="#AA6550"/>
<path d="M112.374 88.6168C111.24 88.3404 109.275 89.3973 108.789 90.4651C108.303 91.5328 108.195 92.7415 107.709 93.8092C107.223 94.8769 106.132 95.8471 105.009 95.5761C104.623 95.4542 104.277 95.232 104.004 94.9321C103.732 94.6322 103.544 94.2654 103.459 93.8688C103.302 93.0725 103.302 92.2532 103.459 91.4569C103.896 87.961 104.625 84.4976 104.766 80.9801C104.906 77.4625 104.409 73.804 102.568 70.8067C100.726 67.8095 97.346 65.6035 93.8468 65.8854C91.5302 66.0751 89.408 67.2891 87.1076 67.6089C85.7387 67.7908 84.3465 67.6574 83.0366 67.2189C81.7268 66.7803 80.5336 66.0481 79.5476 65.0778C79.2938 64.8285 78.1328 64.0534 78.1328 64.0534C78.1328 63.8745 78.3002 62.3136 78.9158 61.7445C83.4788 57.506 91.7084 56.3245 97.7402 57.8475C103.772 59.3705 109.426 63.6415 112.018 69.3162C114.61 74.991 113.843 82.8662 112.412 88.6168" fill="#263238"/>
<path d="M70.9455 69.8588C71.9229 72.1298 74.4177 73.4523 76.8855 73.7016C79.3533 73.9509 81.7887 73.3113 84.1593 72.6176C86.5299 71.9238 92.8965 70.8832 95.3643 70.9591C95.7315 70.9591 96.1743 70.9591 96.3741 70.6501C96.6333 70.2328 96.2175 69.7287 95.8341 69.4306C92.5941 66.8724 84.7263 65.306 80.6007 65.1326C76.4751 64.9591 72.1497 66.7586 69.9141 70.2219" fill="#263238"/>
<path d="M72.0205 70.1404C72.0205 70.1404 100.641 60.9264 112.996 85.7446C112.996 85.7446 114.843 79.5278 114.843 76.1945C114.843 73.9723 113.52 60.715 99.9331 56.547C99.9331 56.547 79.4617 48.7097 72.0205 70.1404Z" fill="#F27507"/>
<g opacity="0.4">
<path opacity="0.4" d="M72.0205 70.1404C74.3998 67.6256 77.6617 66.1402 81.1141 65.9995C89.5543 65.6201 105.344 70.3843 112.974 85.7446C112.974 85.7446 114.821 79.5278 114.821 76.1945C114.821 73.9723 113.498 60.715 99.9115 56.547C99.9331 56.547 79.4617 48.7097 72.0205 70.1404Z" fill="black"/>
</g>
<path d="M111.781 82.8337C107.442 76.3506 101.757 70.8868 95.1162 66.8177C88.5606 62.693 77.6904 58.6172 70.2006 56.6172C67.9542 56.021 65.6106 55.4953 63.3156 55.8964C61.0206 56.2974 58.7742 57.8259 58.2072 60.0914C57.4944 62.9261 62.5272 67.3 64.8654 69.0182C67.1736 70.5623 69.5639 71.979 72.0258 73.262C72.0258 73.262 71.961 68.0046 80.3472 66.9206C91.7466 65.4464 111.781 82.8337 111.781 82.8337Z" fill="#F27507"/>
<path d="M88.344 61.3814C88.344 61.3814 84.2184 59.0942 80.082 58.563C80.7708 58.0179 81.5256 57.5626 82.3284 57.208C84.5754 57.5817 86.7485 58.3136 88.7652 59.376L88.344 61.3814Z" fill="#FAFAFA"/>
<path d="M124.276 135.956C124.276 135.956 116.457 144.926 117.321 157.408C117.439 159.137 117.526 161.549 117.736 163.272C119.054 173.982 121.095 183.923 121.095 183.923H121.84L149.105 177.164C149.105 177.164 144.996 153.408 144.051 150.254C141.032 140.156 130.68 134.601 130.68 134.601L124.276 135.956Z" fill="#F27507"/>
<path d="M93.534 254.962C93.534 254.962 93.534 254.827 93.534 254.561C93.534 254.296 93.534 253.889 93.534 253.369C93.534 252.317 93.534 250.778 93.534 248.789C93.534 244.794 93.534 239.033 93.5664 231.814C93.615 217.402 93.6852 197.348 93.7662 174.73L93.939 174.866L83.571 177.576L73.3866 180.226L73.4892 180.091C73.6296 191.429 73.5918 202.128 73.5378 211.798C73.4838 221.467 73.4298 230.101 73.3866 237.32C73.3434 244.54 73.3866 250.328 73.3866 254.339C73.3866 256.334 73.3866 257.878 73.3866 258.935V260.128C73.3866 260.393 73.3866 260.529 73.3866 260.529C73.3866 260.529 73.3866 260.393 73.3866 260.128C73.3866 259.862 73.3866 259.456 73.3866 258.935C73.3866 257.851 73.3488 256.334 73.3164 254.339C73.2678 250.345 73.2354 244.54 73.2408 237.32C73.2462 230.101 73.3002 221.461 73.3326 211.798C73.365 202.134 73.3974 191.429 73.2516 180.096V179.982L73.3596 179.955L83.5386 177.305L93.912 174.595L94.0902 174.546V174.73C93.9714 197.348 93.8688 217.407 93.7986 231.814C93.75 239.011 93.7068 244.794 93.6798 248.789C93.6798 250.778 93.6474 252.317 93.6366 253.369C93.6366 253.911 93.6366 254.285 93.6366 254.561C93.6366 254.838 93.534 254.962 93.534 254.962Z" fill="#263238"/>
<path d="M80.9089 119.825C80.9089 119.825 79.8288 130.237 83.3172 131.858C87.2538 133.679 91.1796 131.896 93.5772 130.351C100.009 126.232 109.567 114.79 109.567 114.79L116.047 123.234C116.047 123.234 99.7279 142.92 96.4501 142.79C94.2901 142.708 90.9691 140.622 88.8901 139.153C87.7523 138.355 86.7387 137.393 85.8822 136.297L83.058 132.692C79.5318 134.438 76.6807 136.676 74.7097 139.543C74.7097 139.543 73.7701 132.253 75.4603 128.947C77.1505 125.641 80.5201 119.934 80.5201 119.934L80.9089 119.825Z" fill="#F27507"/>
<path d="M75.2598 129.23C75.2467 129.292 75.2249 129.352 75.195 129.409C75.1464 129.539 75.0762 129.707 74.9844 129.918C74.7602 130.592 74.5993 131.285 74.5038 131.989C74.1903 134.581 74.1903 137.201 74.5038 139.793L74.3094 139.755C75.2178 138.215 76.4045 136.859 77.8086 135.755C79.3981 134.458 81.1345 133.354 82.9818 132.465L83.0682 132.422L83.133 132.498C84.2724 133.826 85.4766 135.208 86.7456 136.612C88.0148 138.082 89.4439 139.406 91.0062 140.558C91.7526 141.088 92.5638 141.52 93.42 141.842C93.8413 141.996 94.2749 142.114 94.716 142.194C95.1479 142.265 95.5869 142.281 96.0228 142.243C97.7778 142.081 99.2628 141.072 100.494 140.01L111.667 128.054L114.907 124.623L115.776 123.718L116.003 123.485L116.089 123.414L116.024 123.501L115.808 123.75L114.971 124.682L111.785 128.167L100.694 140.189C100.054 140.761 99.3553 141.262 98.6094 141.685C97.8286 142.129 96.9644 142.406 96.0714 142.498C95.6103 142.536 95.1463 142.519 94.689 142.449C94.231 142.368 93.781 142.247 93.3444 142.086C92.4623 141.755 91.6258 141.312 90.855 140.769C89.2702 139.606 87.8211 138.268 86.535 136.78C85.2606 135.371 84.0564 133.983 82.9224 132.65L83.079 132.682C81.2496 133.564 79.5281 134.655 77.949 135.934C76.5788 137.015 75.4168 138.337 74.52 139.837L74.358 140.118L74.3256 139.799C74.0239 137.19 74.053 134.552 74.412 131.951C74.5228 131.246 74.7037 130.554 74.952 129.886C75.0492 129.658 75.1356 129.495 75.1896 129.381C75.2097 129.329 75.2332 129.279 75.2598 129.23Z" fill="#263238"/>
<g opacity="0.3">
<path opacity="0.3" d="M75.6601 138.004C75.5511 138.277 75.531 138.578 75.6028 138.863C75.6746 139.149 75.8345 139.404 76.0597 139.592C76.2846 139.679 76.5289 139.702 76.766 139.659C77.003 139.616 77.2238 139.508 77.4043 139.348C77.7581 139.023 78.0636 138.649 78.3115 138.237C78.9573 137.303 79.7339 136.467 80.6173 135.755C81.4867 135.05 82.6801 134.454 83.6791 134.953C84.3039 135.367 84.7776 135.974 85.0291 136.682C86.3845 139.462 88.0099 142.291 90.6613 143.879C93.3127 145.468 96.7201 145.538 99.6415 144.503C102.546 143.368 105.101 141.486 107.05 139.045C108.984 136.611 110.699 134.01 112.175 131.273C113.395 129.153 114.632 126.969 115.01 124.552C114.675 124.741 113.887 125.961 113.552 126.151C113.552 126.151 100.965 140.064 99.7819 140.785C98.5993 141.506 95.3377 146.308 86.0983 135.907L83.0419 132.579C83.0419 132.579 77.2207 135.413 75.6601 138.004Z" fill="black"/>
</g>
<path d="M109.374 168.021L95.5332 165.891L94.8922 170.085L108.733 172.216L109.374 168.021Z" fill="white"/>
<path d="M146.815 177.689L125.215 182.931L127.71 203.38L86.3463 234.562C84.6939 234.795 82.9983 235.06 82.0587 235.299C79.7961 235.841 75.8001 241.559 74.6715 242.128L66.6093 248.372C66.6093 248.372 65.9019 251.212 69.5793 250.643C73.2567 250.074 77.3553 247.239 77.7819 247.239C78.2085 247.239 79.4937 248.101 78.8619 249.949C78.3219 251.575 76.1079 257.168 76.1079 257.168L73.3701 262.209C73.3701 262.209 85.2069 262.599 88.4901 258.193C90.7365 255.201 97.6701 246.719 97.6701 246.719C97.6701 246.719 146.362 222.675 149.283 217.64C153.263 210.789 146.815 177.689 146.815 177.689Z" fill="#B78876"/>
<path d="M136.858 212.194C136.887 211.448 136.854 210.701 136.761 209.961C136.499 208.173 135.626 206.532 134.291 205.319C132.956 204.107 131.242 203.398 129.444 203.316C128.7 203.295 127.956 203.337 127.219 203.44C127.403 203.352 127.6 203.292 127.802 203.261C128.345 203.146 128.9 203.097 129.454 203.115C131.316 203.146 133.102 203.854 134.482 205.109C135.862 206.363 136.741 208.077 136.955 209.933C137.022 210.486 137.022 211.045 136.955 211.597C136.952 211.8 136.919 212.001 136.858 212.194Z" fill="#AA6550"/>
<path d="M83.0951 254.572C83.0527 255.037 82.9585 255.495 82.8143 255.938C82.5377 257.034 82.1354 258.095 81.6155 259.098C81.0975 260.124 80.3094 260.988 79.3367 261.597C79.0396 261.774 78.7173 261.906 78.3809 261.987C78.2597 262.029 78.1301 262.042 78.0029 262.025C78.4289 261.86 78.8407 261.661 79.2341 261.429C80.1438 260.796 80.8854 259.949 81.3941 258.962C81.8921 257.973 82.3023 256.941 82.6199 255.878C82.7403 255.43 82.8993 254.993 83.0951 254.572Z" fill="#AA6550"/>
<path d="M88.8303 252.681C88.7487 253.136 88.6089 253.578 88.4145 253.998C88.0081 255.035 87.5355 256.045 86.9997 257.022C86.4621 257.999 85.8633 258.94 85.2069 259.84C84.9578 260.237 84.6603 260.602 84.3213 260.924C84.5295 260.513 84.7716 260.12 85.0449 259.748C85.5093 259.038 86.1249 258.041 86.7513 256.908C87.3777 255.775 87.8799 254.74 88.2309 253.944C88.3937 253.506 88.5943 253.083 88.8303 252.681Z" fill="#AA6550"/>
<path d="M88.674 217.288C88.7327 217.515 88.7653 217.748 88.7712 217.982C88.8198 218.426 88.8576 219.066 88.8792 219.873C88.9808 224.057 88.3783 228.227 87.0972 232.209C86.8488 232.968 86.6328 233.581 86.46 233.993C86.3863 234.213 86.2904 234.426 86.1738 234.627C86.2099 234.396 86.2715 234.171 86.3574 233.955C86.4978 233.532 86.6868 232.914 86.8974 232.15C87.4774 230.158 87.9177 228.128 88.215 226.074C88.5071 224.02 88.6586 221.948 88.6686 219.873C88.6686 219.077 88.6686 218.432 88.6686 217.987C88.6485 217.755 88.6503 217.52 88.674 217.288Z" fill="#263238"/>
<path d="M76.9717 223.797C77.2343 224.351 77.4616 224.921 77.6521 225.504C78.0517 226.588 78.6079 228.03 79.2721 229.629C79.9363 231.228 80.5519 232.664 81.0109 233.699C81.2812 234.25 81.5175 234.816 81.7183 235.396C81.3701 234.884 81.0735 234.34 80.8327 233.77C80.3251 232.751 79.6717 231.325 79.0129 229.721C78.3541 228.117 77.8303 226.637 77.4793 225.553C77.2566 224.985 77.0866 224.397 76.9717 223.797Z" fill="#263238"/>
<path d="M73.8344 237.83C73.7255 237.877 73.6112 237.91 73.4942 237.928L72.506 238.166C72.074 238.269 71.5502 238.388 70.9292 238.491C70.3082 238.594 69.6116 238.746 68.8232 238.844C68.0348 238.941 67.2032 239.077 66.2582 239.158C65.3132 239.239 64.3358 239.31 63.2936 239.369C58.7541 239.571 54.207 239.224 49.7503 238.334C48.7297 238.112 47.7523 237.917 46.8559 237.668C45.9595 237.418 45.1225 237.201 44.3665 236.968C43.6105 236.735 42.9301 236.502 42.3361 236.302C41.7421 236.101 41.2561 235.906 40.8295 235.76L39.8845 235.38C39.7731 235.338 39.6648 235.287 39.5605 235.229C39.6796 235.245 39.7958 235.278 39.9061 235.326L40.8673 235.657C41.2777 235.808 41.7907 235.993 42.3847 236.199C42.9787 236.405 43.6591 236.621 44.4205 236.822C45.1819 237.023 46.0081 237.277 46.9099 237.483C47.8117 237.689 48.7783 237.911 49.7989 238.123C52.0194 238.539 54.2598 238.839 56.5112 239.023C58.7645 239.185 61.0248 239.228 63.2828 239.153C64.325 239.098 65.3132 239.06 66.2366 238.968C67.16 238.876 68.0132 238.789 68.7962 238.692C69.5792 238.594 70.2812 238.475 70.9022 238.378C71.5232 238.28 72.0524 238.188 72.4844 238.101L73.4834 237.917C73.5967 237.875 73.7144 237.845 73.8344 237.83Z" fill="#263238"/>
<path d="M71.7772 228.404C70.8836 228.076 70.0245 227.66 69.2122 227.163C68.3571 226.746 67.5434 226.249 66.7822 225.678C67.6775 226.002 68.537 226.418 69.3472 226.919C70.2045 227.331 71.0186 227.829 71.7772 228.404Z" fill="#263238"/>
<path d="M149.105 177.164L148.97 177.207L148.57 177.316L147.026 177.712L141.215 179.153L121.127 184.031L120.982 184.064V183.917C120.415 180.194 119.637 176.178 118.886 171.993C118.395 169.202 117.968 166.465 117.677 163.809C117.385 161.153 117.256 158.568 117.218 156.107C117.158 153.779 117.294 151.449 117.623 149.143C117.915 147.125 118.512 145.164 119.394 143.327C120.148 141.822 121.157 140.459 122.375 139.3C123.291 138.424 124.344 137.702 125.491 137.165C126.22 136.837 126.985 136.595 127.769 136.444L128.385 136.368C128.455 136.36 128.526 136.36 128.596 136.368C128.527 136.39 128.457 136.405 128.385 136.411L127.78 136.52C127.007 136.687 126.255 136.941 125.539 137.278C124.413 137.834 123.381 138.566 122.483 139.446C121.293 140.604 120.309 141.957 119.572 143.446C118.715 145.27 118.136 147.212 117.855 149.208C117.538 151.504 117.411 153.823 117.477 156.14C117.52 158.59 117.661 161.159 117.952 163.809C118.244 166.46 118.676 169.191 119.167 171.977C119.912 176.156 120.685 180.178 121.252 183.901L121.084 183.787L141.199 178.991L147.026 177.625L148.581 177.272L148.986 177.186C149.025 177.175 149.065 177.168 149.105 177.164Z" fill="#263238"/>
</svg>
