<svg width="35" height="37" viewBox="0 0 35 37" fill="none" xmlns="http://www.w3.org/2000/svg">
    <path
        d="M21.3195 3.94946C20.2306 3.94946 19.3447 3.06358 19.3447 1.97473C19.3447 0.885878 20.2306 0 21.3195 0C22.4083 0 23.2942 0.885878 23.2942 1.97473C23.2942 3.06358 22.4083 3.94946 21.3195 3.94946Z"
        fill="#62666E" />
    <path
        d="M21.3198 3.94946C21.3198 2.80997 21.3198 1.05789 21.3198 0C22.4087 0 23.2946 0.885878 23.2946 1.97473C23.2946 3.06358 22.4087 3.94946 21.3198 3.94946Z"
        fill="#333333" />
    <path d="M22.5966 15.2471L18.1895 23.0214H24.1744L28.4035 15.2471H22.5966Z" fill="#62666E" />
    <path
        d="M25.6653 15.2471L23.1301 19.5702C22.5204 20.61 21.4053 21.2488 20.1999 21.2488C18.3239 21.2488 16.803 19.728 16.803 17.852V15.2472H12.6475C12.6475 15.2472 12.8554 18.6074 12.0963 19.7137C10.0213 22.7374 10.2055 25.2671 10.2055 25.2671L8.18848 27.5367L11.8803 32.7946L14.8829 30.7957L21.6651 26.8638C24.0501 25.4811 26.0153 23.477 27.3509 21.0653L30.573 15.2471H25.6653V15.2471Z"
        fill="#3A3A3A" />
    <path d="M4.30765 27.3767L11.8115 36.1104L16.5154 32.0688L9.01149 23.3352L4.30765 27.3767Z"
        fill="#333333" />
    <path d="M6.39596 2.23047H2.24902V4.34625H6.39596V2.23047Z" fill="#333333" />
    <path d="M6.39596 10.6934H2.24902V12.8091H6.39596V10.6934Z" fill="#333333" />
    <path d="M6.3957 6.46191H0.295898V8.5777H6.3957V6.46191Z" fill="#333333" />
    <path
        d="M33.7572 15.2478H8.88281C8.88281 8.38987 14.4621 2.81055 21.32 2.81055C28.1779 2.81055 33.7572 8.38987 33.7572 15.2478Z"
        fill="#3A3A3A" />
    <path
        d="M33.7565 15.2478H21.3193C21.3193 8.38987 21.3193 6.46267 21.3193 2.81055C28.1772 2.81055 33.7565 8.38987 33.7565 15.2478Z"
        fill="#3A3A3A" />
    <path d="M34.9995 14.1895H7.63965V16.3052H34.9995V14.1895Z" fill="#3A3A3A" />
    <path d="M34.9991 14.1895H21.353V16.3052H34.9991V14.1895Z" fill="#333333" />
    <path
        d="M12.1809 32.9351C12.7652 32.9351 13.2388 32.4615 13.2388 31.8772C13.2388 31.293 12.7652 30.8193 12.1809 30.8193C11.5967 30.8193 11.123 31.293 11.123 31.8772C11.123 32.4615 11.5967 32.9351 12.1809 32.9351Z"
        fill="white" />
</svg>
