<svg width="27" height="33" viewBox="0 0 27 33" fill="none" xmlns="http://www.w3.org/2000/svg">
    <path
        d="M21.1118 12.6032V15.482C21.1118 19.7153 17.668 23.159 13.4348 23.159C9.20158 23.159 5.75781 19.7153 5.75781 15.482V12.6032C5.75781 12.0735 6.18772 11.6436 6.71744 11.6436H20.1522C20.6819 11.6436 21.1118 12.0735 21.1118 12.6032Z"
        fill="white" />
    <path
        d="M21.1116 12.6032V15.482C21.1116 19.7153 17.6678 23.159 13.4346 23.159V11.6436H20.1519C20.6816 11.6436 21.1116 12.0735 21.1116 12.6032Z"
        fill="white" />
    <path
        d="M19.1925 23.2123L18.5316 24.6517L17.2732 23.1592H9.59623L8.82853 24.5027L7.67699 23.2123C3.36444 23.6908 0 27.3579 0 31.7958C0 32.3255 0.429911 32.7554 0.959623 32.7554H5.75774C5.85287 32.7376 4.755 32.9427 13.4347 31.3217L21.1117 32.7554H25.9098C26.4395 32.7554 26.8694 32.3255 26.8694 31.7958C26.8694 27.3579 23.5049 23.6908 19.1925 23.2123Z"
        fill="#4C5059" />
    <path
        d="M26.8693 31.7958C26.8693 32.3255 26.4394 32.7554 25.9097 32.7554H21.1116L13.4346 31.3217V23.1592H17.2731L18.5314 24.6517L19.1923 23.2123C23.5048 23.6908 26.8693 27.3579 26.8693 31.7958Z"
        fill="#4C5059" />
    <path
        d="M21.1118 27.9567V32.7548H5.75781V27.9567C5.75781 27.427 6.18772 26.9971 6.71744 26.9971H20.1522C20.6819 26.9971 21.1118 27.427 21.1118 27.9567Z"
        fill="#3A3A3A" />
    <path
        d="M21.1116 27.9567V32.7548H13.4346V26.9971H20.152C20.6817 26.9971 21.1116 27.427 21.1116 27.9567Z"
        fill="#3A3A3A" />
    <path
        d="M9.59602 23.1592V27.9573C9.59602 28.487 9.1661 28.917 8.63639 28.917C8.10667 28.917 7.67676 28.487 7.67676 27.9573V23.2123C7.99152 23.1771 8.31203 23.1592 8.63639 23.1592H9.59602Z"
        fill="#3A3A3A" />
    <path
        d="M19.1927 23.2123V27.9573C19.1927 28.487 18.7628 28.917 18.2331 28.917C17.7034 28.917 17.2734 28.487 17.2734 27.9573V23.1592H18.2331C18.5574 23.1592 18.8779 23.1771 19.1927 23.2123Z"
        fill="#3A3A3A" />
    <path
        d="M21.1116 7.80493H20.8691C20.2633 5.4577 18.566 3.51734 16.3135 2.6057V0.959623C16.3135 0.429911 15.8836 0 15.3539 0H11.5154C10.9857 0 10.5557 0.429911 10.5557 0.959623V2.6057C8.26672 3.53205 6.55091 5.52039 5.9713 7.91945C4.74106 8.27323 3.83838 9.40878 3.83838 10.7516V12.6031C3.83838 13.1328 4.26829 13.5627 4.798 13.5627H22.0712C22.6009 13.5627 23.0308 13.1328 23.0308 12.6031V9.72418C23.0308 8.66604 22.1697 7.80493 21.1116 7.80493Z"
        fill="#4C5059" />
    <path
        d="M23.0308 9.72418V12.6031C23.0308 13.1328 22.6009 13.5627 22.0712 13.5627H13.4346V0H15.3538C15.8835 0 16.3134 0.429911 16.3134 0.959623V2.6057C18.566 3.51734 20.2632 5.4577 20.8691 7.80493H21.1116C22.1697 7.80493 23.0308 8.66604 23.0308 9.72418Z"
        fill="#4C5059" />
    <path
        d="M16.0328 9.44305L14.1136 11.3623C13.9012 11.5747 13.6625 11.6611 13.4348 11.656C12.6991 11.6432 12.0702 10.6906 12.756 10.0048L13.4348 9.32662L13.7342 9.02722L13.4348 8.87751L11.0862 7.70357C10.5015 7.41056 10.3742 6.62942 10.8367 6.16624L12.756 4.24699C12.9684 4.03459 13.207 3.94822 13.4348 3.95334C14.1705 3.96613 14.7994 4.91873 14.1136 5.60454L13.4348 6.28268L13.1354 6.58208L13.4348 6.73178L15.7833 7.90573C16.368 8.19874 16.4954 8.97987 16.0328 9.44305Z"
        fill="white" />
    <path d="M14.1133 5.6053L13.4346 6.28344V3.9541C14.1703 3.9669 14.7992 4.91949 14.1133 5.6053Z"
        fill="white" />
    <path
        d="M16.0326 9.44369L14.1133 11.363C13.9009 11.5753 13.6623 11.6617 13.4346 11.6566V9.32726L13.734 9.02785L13.4346 8.87815V6.73242L15.7831 7.90637C16.3678 8.19937 16.4951 8.98051 16.0326 9.44369Z"
        fill="white" />
</svg>
