<svg width="33" height="33" viewBox="0 0 33 33" fill="none" xmlns="http://www.w3.org/2000/svg">
    <path d="M25.2012 7.73438H33V33H25.2012V7.73438Z" fill="#333333" />
    <path d="M0 7.73438H7.79883V33H0V7.73438Z" fill="#333333" />
    <path
        d="M26.4902 32.3555L19.4004 33L16.5 32.3555L13.5995 33H5.86523V0H16.5L26.4902 0.644531L27.1348 18.584L26.4902 32.3555Z"
        fill="#333333" />
    <path d="M27.1348 33H19.4004L16.5 31.7109V0H27.1348V33Z" fill="#333333" />
    <path d="M9.73242 3.86719H11.666V5.80078H9.73242V3.86719Z" fill="white" />
    <path d="M13.5996 3.86719H15.5332V5.80078H13.5996V3.86719Z" fill="white" />
    <path d="M17.4668 3.86719H19.4004V5.80078H17.4668V3.86719Z" fill="#DADADA" />
    <path d="M21.334 3.86719H23.2676V5.80078H21.334V3.86719Z" fill="#DADADA" />
    <path d="M9.73242 7.73438H11.666V9.66797H9.73242V7.73438Z" fill="white" />
    <path d="M13.5996 7.73438H15.5332V9.66797H13.5996V7.73438Z" fill="white" />
    <path d="M17.4668 7.73438H19.4004V9.66797H17.4668V7.73438Z" fill="#DADADA" />
    <path d="M21.334 7.73438H23.2676V9.66797H21.334V7.73438Z" fill="#DADADA" />
    <path d="M9.73242 11.6016H11.666V13.5352H9.73242V11.6016Z" fill="white" />
    <path d="M13.5996 11.6016H15.5332V13.5352H13.5996V11.6016Z" fill="white" />
    <path d="M17.4668 11.6016H19.4004V13.5352H17.4668V11.6016Z" fill="#DADADA" />
    <path d="M21.334 11.6016H23.2676V13.5352H21.334V11.6016Z" fill="#DADADA" />
    <path d="M9.73242 15.4688H11.666V17.4023H9.73242V15.4688Z" fill="white" />
    <path d="M13.5996 15.4688H15.5332V17.4023H13.5996V15.4688Z" fill="white" />
    <path d="M17.4668 15.4688H19.4004V17.4023H17.4668V15.4688Z" fill="#DADADA" />
    <path d="M21.334 15.4688H23.2676V17.4023H21.334V15.4688Z" fill="#DADADA" />
    <path d="M9.73242 19.3359H11.666V21.2695H9.73242V19.3359Z" fill="white" />
    <path d="M13.5996 19.3359H15.5332V21.2695H13.5996V19.3359Z" fill="white" />
    <path d="M17.4668 19.3359H19.4004V21.2695H17.4668V19.3359Z" fill="#DADADA" />
    <path d="M21.334 19.3359H23.2676V21.2695H21.334V19.3359Z" fill="#DADADA" />
    <path d="M13.5996 24.1699H19.4004V33H13.5996V24.1699Z" fill="#F9FBFF" />
    <path d="M16.5 24.1699H19.4004V33H16.5V24.1699Z" fill="#DADADA" />
</svg>
