<svg width="38" height="33" viewBox="0 0 38 33" fill="none" xmlns="http://www.w3.org/2000/svg">
    <path
        d="M35.3279 23.7586H13.4226C12.9033 23.7586 12.4529 23.3999 12.3373 22.8941L7.93818 3.65809L0.88802 2.20156C0.285885 2.07724 -0.101239 1.48876 0.0232997 0.887221C0.147764 0.28568 0.736911 -0.101073 1.3389 0.023243L9.08961 1.62451C9.51637 1.71268 9.85243 2.04154 9.94943 2.466L14.3101 21.5342H35.3279C35.9427 21.5342 36.4411 22.0321 36.4411 22.6464C36.4411 23.2606 35.9428 23.7586 35.3279 23.7586Z"
        fill="#333333" />
    <path
        d="M37.1638 10.3603L13.4553 4.2733C13.0791 4.17675 12.6799 4.28295 12.4017 4.55355C12.1235 4.82415 12.0064 5.22004 12.093 5.59825L16.0484 22.8947C16.1641 23.4004 16.6144 23.7591 17.1337 23.7591H35.3282C35.8838 23.7591 36.3544 23.3498 36.4308 22.8L37.9894 11.5906C38.0673 11.0303 37.7121 10.501 37.1638 10.3603Z"
        fill="#333333" />
    <path
        d="M37.1636 10.3598L26.04 7.50391V23.7586H35.328C35.8836 23.7586 36.3542 23.3493 36.4306 22.7994L37.9892 11.59C38.0671 11.0298 37.7119 10.5005 37.1636 10.3598Z"
        fill="#333333" />
    <path
        d="M18.8091 25.2422C16.7629 25.2422 15.0981 26.9053 15.0981 28.9495C15.0981 30.9937 16.7629 32.6568 18.8091 32.6568C20.8553 32.6568 22.52 30.9937 22.52 28.9495C22.52 26.9053 20.8553 25.2422 18.8091 25.2422Z"
        fill="#333333" />
    <path
        d="M29.9419 25.2422C27.8957 25.2422 26.231 26.9053 26.231 28.9495C26.231 30.9937 27.8957 32.6568 29.9419 32.6568C31.9881 32.6568 33.6528 30.9937 33.6528 28.9495C33.6527 26.9053 31.9881 25.2422 29.9419 25.2422Z"
        fill="#DFE4EA" />
    <path
        d="M29.9419 25.2422C27.8957 25.2422 26.231 26.9053 26.231 28.9495C26.231 30.9937 27.8957 32.6568 29.9419 32.6568C31.9881 32.6568 33.6528 30.9937 33.6528 28.9495C33.6527 26.9053 31.9881 25.2422 29.9419 25.2422Z"
        fill="#333333" />
    <path
        d="M21.2759 11.4502C20.661 11.4502 20.1626 11.9481 20.1626 12.5624V17.456C20.1626 18.0703 20.661 18.5682 21.2759 18.5682C21.8907 18.5682 22.3892 18.0703 22.3892 17.456V12.5624C22.3892 11.9481 21.8907 11.4502 21.2759 11.4502Z"
        fill="#F9FBFF" />
    <path
        d="M30.8042 14.1201C30.1894 14.1201 29.6909 14.618 29.6909 15.2323V17.4567C29.6909 18.0709 30.1894 18.5688 30.8042 18.5688C31.419 18.5688 31.9175 18.0709 31.9175 17.4567V15.2323C31.9175 14.618 31.4191 14.1201 30.8042 14.1201Z"
        fill="#DADADA" />
    <path
        d="M26.04 12.9336C25.4252 12.9336 24.9268 13.4315 24.9268 14.0458V17.4565C24.9268 18.0707 25.4252 18.5686 26.04 18.5686C26.6549 18.5686 27.1533 18.0707 27.1533 17.4565V14.0458C27.1533 13.4315 26.6549 12.9336 26.04 12.9336Z"
        fill="#F9FBFF" />
    <path
        d="M26.0401 12.9336L26.04 18.5687C26.04 18.5687 26.04 18.5687 26.0401 18.5687C26.6549 18.5687 27.1534 18.0708 27.1534 17.4565V14.0458C27.1534 13.4315 26.6549 12.9336 26.0401 12.9336Z"
        fill="#DADADA" />
</svg>
