<svg width="16" height="20" viewBox="0 0 16 20" fill="none" xmlns="http://www.w3.org/2000/svg">
<path fill-rule="evenodd" clip-rule="evenodd" d="M8 9C8 10.8638 6.72523 12.4299 5 12.874V20H3V12.874C1.27477 12.4299 0 10.8638 0 9C0 6.79086 1.79086 5 4 5C6.20914 5 8 6.79086 8 9ZM4 7C5.10457 7 6 7.89543 6 9C6 10.1046 5.10457 11 4 11C2.89543 11 2 10.1046 2 9C2 7.89543 2.89543 7 4 7Z" fill="#2E3A59"/>
<path d="M3 4V0H5V4H3Z" fill="#2E3A59"/>
<path fill-rule="evenodd" clip-rule="evenodd" d="M16 14C16 15.8638 14.7252 17.4299 13 17.874V20H11V17.874C9.27477 17.4299 8 15.8638 8 14C8 11.7909 9.79086 10 12 10C14.2091 10 16 11.7909 16 14ZM12 12C13.1046 12 14 12.8954 14 14C14 15.1046 13.1046 16 12 16C10.8954 16 10 15.1046 10 14C10 12.8954 10.8954 12 12 12Z" fill="#2E3A59"/>
<path d="M13 9V0H11V9H13Z" fill="#2E3A59"/>
</svg>
