<svg width="13" height="17" viewBox="0 0 13 17" fill="none" xmlns="http://www.w3.org/2000/svg">
<path d="M12.0002 13.8333C12.0002 14.4964 11.7368 15.1323 11.2679 15.6011C10.7991 16.0699 10.1632 16.3333 9.50016 16.3333H3.66683C3.00379 16.3333 2.3679 16.0699 1.89906 15.6011C1.43022 15.1323 1.16683 14.4964 1.16683 13.8333V3.83333H0.333496V1.33333H4.0835L4.91683 0.5H8.25016L9.0835 1.33333H12.8335V3.83333H12.0002V13.8333ZM2.00016 3.83333V13.8333C2.00016 14.2754 2.17576 14.6993 2.48832 15.0118C2.80088 15.3244 3.2248 15.5 3.66683 15.5H9.50016C9.94219 15.5 10.3661 15.3244 10.6787 15.0118C10.9912 14.6993 11.1668 14.2754 11.1668 13.8333V3.83333H2.00016ZM12.0002 3V2.16667H8.66683L7.8335 1.33333H5.3335L4.50016 2.16667H1.16683V3H12.0002ZM3.66683 5.5H4.50016V13.8333H3.66683V5.5ZM8.66683 5.5H9.50016V13.8333H8.66683V5.5Z" fill="#2E3A59"/>
</svg>
