<svg width="30" height="26" viewBox="0 0 30 26" fill="none" xmlns="http://www.w3.org/2000/svg">
<path d="M28.6562 0.5H1.34375C0.686914 0.5 0.15625 0.946875 0.15625 1.5V24.5C0.15625 25.0531 0.686914 25.5 1.34375 25.5H28.6562C29.3131 25.5 29.8438 25.0531 29.8438 24.5V1.5C29.8438 0.946875 29.3131 0.5 28.6562 0.5ZM27.4688 15H15.5938V11H27.4688V15ZM17.5234 13C17.5234 13.3315 17.6798 13.6495 17.9582 13.8839C18.2366 14.1183 18.6141 14.25 19.0078 14.25C19.4015 14.25 19.7791 14.1183 20.0574 13.8839C20.3358 13.6495 20.4922 13.3315 20.4922 13C20.4922 12.6685 20.3358 12.3505 20.0574 12.1161C19.7791 11.8817 19.4015 11.75 19.0078 11.75C18.6141 11.75 18.2366 11.8817 17.9582 12.1161C17.6798 12.3505 17.5234 12.6685 17.5234 13Z" fill="#3A3A3A"/>
</svg>
